<svg version="1.1" id="Calque_1" xmlns="http://www.w3.org/2000/svg" xmlns:xlink="http://www.w3.org/1999/xlink" x="0px" y="0px"
     width="200px" height="200px" viewBox="0 0 600 550" enable-background="new 0 0 0 0" xml:space="preserve">
<g>
	<path  fill="black"  d="M190.084,300.994c0.794-1.158,1.244-2.627,1.469-3.703c0.708-3.247-1.093-5.343-3.669-6.827
		c-1.45-0.808-3.273-0.981-4.967-1.018c-0.882,0.023-3.58,0.47-2.658-0.978c0.484-0.742,1.894-1.323,2.634-1.848
		c0.996-0.729,1.559-1.143,2.003-1.456c0.446-0.307,0.785-0.494,1.298-0.802c0.407-0.244,0.93-0.569,1.678-1.121
		c1.253-1.048,1.253-1.048,2.145-1.713c0.139-0.119,0.282-0.238,0.43-0.368c0.567-0.514,1.175-0.98,1.724-1.515
		c0.28-0.271,0.501-0.601,0.772-0.879c0.458-0.467,1.009-0.911,1.598-1.195c0.662-0.321,1.353-0.578,2.048-0.82
		c2.038-0.707,4.086-1.174,5.775-2.279c2.579-1.724,4.792-4.026,5.665-7.058c0.175-0.869,0.847-3.504,0.794-5.864
		c-0.045-2.354-0.795-4.409-3.379-4.207c-0.553,0.139-2.469,1.306-4.421,2.574c-1.979,1.25-4.001,2.598-4.758,3.187
		c-2.391,2.104-3.725,4.083-4.57,7.892c-0.233,1.105-0.299,2.234-0.401,3.356c-0.053,0.554-0.112,1.107-0.208,1.656
		c-0.095,0.543-0.293,0.976-0.489,1.487c-0.117,0.304-0.366,0.47-0.591,0.694c-0.24,0.239-0.467,0.487-0.694,0.738
		c-0.45,0.494-0.901,0.993-1.408,1.427c-1.537,1.312-3.212,2.485-4.893,3.609c-1.472,0.896-2.908,1.835-4.218,2.49
		c-0.646,0.345-1.238,0.659-1.751,0.931c-0.516,0.259-0.963,0.451-1.296,0.609c0.361-0.392,0.621-0.641,0.974-1.082
		c0.341-0.457,0.782-1.106,1.471-2.259c0.479-0.748,1.184-2.57,1.634-4.733c0.461-2.159,0.586-4.781,0.183-7.091
		c0.465,0.445,1.152,0.521,1.595,0.277c0.821-0.452,1.192-1.042,1.25-1.645c0.052-0.617-0.209-1.251-0.609-1.784
		c-0.403-0.531-0.947-0.972-1.474-1.209c-0.533-0.25-1.055-0.31-1.42-0.05c-0.143,0.102-0.261,0.206-0.368,0.321
		c0.091-0.747,0.249-1.442-0.268-2.124c-0.466-0.613-0.845-0.993-1.185-1.189c-0.68-0.394-1.205-0.05-1.958,0.662
		c-0.497,0.416-1.202,0.822-1.331,1.628c-0.124,0.751,0.181,1.611,0.665,2.288c0.938,1.317,1.727,1.716,2.935,1.089
		c0.172,0.427,0.341,0.938,0.499,1.584c0.416,1.542,0.758,4.75,0.757,5.596c0.005,1.192-0.196,2.398-0.546,3.569
		c-0.346,1.177-0.879,2.226-1.463,3.219c-0.58,1.002-1.263,1.832-1.921,2.502c-0.659,0.667-1.28,1.197-1.804,1.457
		c-0.589,0.294-2.674,0.973-3.044,0.29c-0.275-0.522,0.589-1.706,0.736-2.198c0.437-1.41,0.883-2.795,1.044-4.271
		c0.078-0.562,0.107-1.121,0.159-1.715c0.041-0.587,0.173-1.143,0.218-1.731c0.135-1.456,0.227-3.241-1.835-6.966
		c-0.528-1.104-1.412-2.731-2.321-3.801c-0.927-1.09-1.845-1.66-2.596-0.536c-0.952,1.312-1.59,3.657-2.174,5.53
		c-0.713,2.489-1.326,4.788-1.557,7.204c-0.227,2.408-0.095,4.871,0.68,7.485c0.278,0.946,0.954,2.308,0.449,3.289
		c-0.685,1.268-3.76,1.083-5.034,1.116c-4.234,0.207-6.43,0.006-7.79-0.069c-1.364-0.066-1.896-0.092-2.777-0.137
		c-0.842-0.025-3.033,0.047-3.44-0.923c-0.251-0.574,1.536-1.126,2.053-1.498c1.255-0.836,2.34-1.744,3.255-2.852
		c0.918-1.106,1.669-2.308,2.271-3.586c1.201-2.571,1.784-5.522,1.959-8.545c0.253-0.158,0.415-0.446,0.58-0.846
		c0.251-0.591,0.521-1.271,0.292-1.98c-0.161-0.497-0.416-1.479-0.769-1.772c-0.478-0.388-1.265-0.41-1.769-0.373
		c-1.298,0.046-1.648,2.417-0.848,4.37c0.182,0.44,0.428,0.988,0.818,1.063c0.077,5.585-1.488,7.907-2.222,9.386
		c-0.869,1.842-2.376,3.489-4.321,4.764c-1.934,1.168-4.311,1.871-6.663,1.513c-0.811-0.067-3.321-0.594-2.835-1.9
		c0.223-0.595,1.463-0.836,1.954-1.071c2.063-1.09,3.18-1.919,3.903-2.597c0.718-0.686,1.035-1.252,1.392-1.774
		c0.394-0.564,0.823-1.601,0.931-2.251c0.219-1.289,0.852-3.962,0.882-5.982c0.02-1.011-0.1-1.856-0.479-2.28
		c-0.372-0.422-0.999-0.409-2.077,0.181c-2.224,1.286-3.797,1.629-6.253,3.412l-0.309,0.206c-1.488,0.993-3.046,2.261-4.386,3.682
		c-1.334,1.405-2.451,3.03-2.981,4.877c-0.214,0.738-0.303,1.677-1.025,2.104c-0.952,0.565-2.406-0.16-3.33-0.481
		c-1.373-0.439-2.932-0.896-4.378-1.454c-1.458-0.535-2.861-1.022-3.938-1.492c1.443-0.418,2.914-0.958,4.306-1.546
		c1.393-0.6,2.696-1.212,3.892-1.995c2.382-1.531,4.194-3.354,5.075-5.529c0.07,0.073,0.133,0.152,0.211,0.216
		c0.259,0.212,0.73,0.388,1.006,0.085c0.46-0.512,1.017-1.128,1.22-1.823c0.18-0.619,0.268-1.303,0.242-1.929
		c-0.028-0.702-0.313-0.949-0.77-1.287c-0.263-0.208-0.601-0.397-0.954-0.242c-0.571,0.257-1.087,1.033-1.384,1.652l-0.105,0.04
		c-0.003-0.446-0.062-0.786-0.384-1.005c-0.353-0.246-0.756-0.363-1.188-0.403c-0.308-0.027-0.634,0.211-0.897,0.402
		c-0.345,0.253-0.711,1.3-0.229,2.478c0.098,0.249,0.158,0.592,0.357,0.726c0.33,0.234,0.908,0.543,1.365,0.669
		c-0.563,1.528-1.728,2.956-3.147,4.182c-1.412,1.221-3.056,2.171-4.501,2.893c-0.645,0.317-1.421,0.75-2.221,1.104
		c-0.796,0.334-1.615,0.596-2.346,0.609c-0.567,0.006-2.608-0.479-2.567-1.261c0.015-0.343,1.239-0.871,1.552-1.132
		c2.062-1.652,4.044-5.222,4.713-11.119c0.185-1.679,1.515-6.5,0.342-7.621c-1.049-0.973-4.077,0.942-5.164,1.653
		c-0.218,0.146-1.377,0.786-1.508,0.89c-1.698,1.307-0.955,0.741-2.032,1.753c-0.432,0.434-0.556,0.526-1.132,1.389
		c-1.229,1.946-2.425,3.972-3.148,6.219c-0.326,1.035-0.628,2.063-0.66,3.149c-0.066,2.5-2.529,0.883-3.693,0.142
		c-0.952-0.574-1.8-1.086-2.617-1.577c-0.798-0.519-1.57-1.016-2.378-1.539c-0.806-0.531-1.665-1.064-2.609-1.711
		c-0.941-0.653-1.989-1.38-3.216-2.23c-0.346-0.195-3.961-2.353-3.283-2.813c0.306-0.208,2.498,0.874,2.909,1.002
		c1.92,0.556,3.996,1.016,5.965,0.757c1.873-0.258,6.29-2.57,9.558-6.064c0.935,0.063,0.652,0.063,1.319-0.212
		c0.854-0.363,1.273-0.906,1.758-1.708c0.255-0.421,0.403-0.678,0.354-1.153c-0.125-1.295-0.251-1.204-0.911-1.887
		c-0.199-0.204-0.379-0.462-0.609-0.625c-0.653-0.463-1.694-0.843-2.446-0.133c-0.512,0.486-0.915,1.319-1.142,1.971
		c-0.173,0.483-0.449,1.736-0.337,2.287c0.023,0.117,0.056,0.222,0.092,0.321c-1.478,1.98-3.279,3.528-5.261,4.977
		c-2.036,1.234-2.77,1.546-5.414,1.307c-2.154-0.199-4.229-1.042-6.21-1.898c-0.594-0.253-2.208-0.672-2.482-1.334
		c-0.383-0.885,1.104-0.592,1.52-0.594c2.301-0.043,4.591-0.775,6.699-1.632c3.314-1.268,5.455-3.394,7.949-5.95
		c0.738-0.752,3.26-2.767,3.067-3.951c-0.131-0.858-1.126-1.181-2.235-1.396c-1.11-0.206-2.362-0.227-2.997-0.326
		c-1.485-0.227-2.674-0.403-3.69-0.511c-1.022-0.099-1.885-0.103-2.714-0.014c-1.659,0.182-3.188,0.748-5.655,1.626
		c-2.07,0.743-4.355,1.762-5.826,3.595c-0.924,1.143-1.355,4.401-3.381,4.097c-1.18-0.173-2.398-1.652-3.218-2.4l-3.063-2.729
		c-1.013-0.916-1.998-1.862-3-2.791l-1.585-1.488c-0.339-0.311-0.865-0.296-1.179,0.032c-0.317,0.329-0.302,0.854,0.036,1.171
		c0,0,0.77,0.718,2.206,2.065c1.422,1.366,3.58,3.293,6.336,5.738c1.941,1.703,3.612,2.402,4.838,6.48
		c0.325,1.035,0.055,1.71-0.173,2.746c-1.139,5.222-2.594,12.949,2.391,20.021c1.563,2.248,3.72,1.725,5.519,0.345
		c1.814-1.38,3.333-3.619,3.867-4.829c0.922-2.15,0.928-4.421,0.009-6.63c-0.378-0.929-0.88-1.798-1.396-2.647
		c-0.346-0.564-1.699-2.089-0.441-2.328c0.549-0.106,0.889,0.305,1.269,0.634c2.564,2.287,4.319,4.111,5.421,5.771
		c1.089,1.673,1.616,3.062,1.733,4.433c0.26,2.729-0.979,5.157-1.321,8.263c-0.439-0.036-0.896,0.008-1.235,0.225
		c-0.61,0.391-1.189,1.397-1.221,2.127c-0.11,1.684,1.966,4.035,3.873,3.657c1.851-0.378,2.845-1.553,3.011-3.329
		c0.058-0.619-0.043-0.861-0.641-1.206c-0.341-0.2-0.651-0.494-0.986-0.705c-0.195-1.539-0.382-3.05-0.408-4.579
		c-0.018-1.899,0.052-3.522-0.284-5.138c-0.327-1.623-1.075-3.198-2.583-5.15c-0.466-0.59-1.41-1.278-1.65-1.962
		c-0.033-0.09,0.992,0.111,1.09,0.154c0.5,0.222,0.982,0.642,1.444,0.938c5.842,3.645,6.362,3.966,12.506,6.778
		c1.169,0.501,2.577,0.943,3.568,1.763c1.446,1.247-1.494,3.06-2.287,4.118c-0.712,1.186-1.143,3.31-1.08,5.717
		c0.074,2.391,0.601,5.13,1.877,7.336c1.265,2.227,2.746,3.384,4.223,3.384c1.465,0.027,2.831-1.009,3.897-3.011
		c0.402-0.756,0.609-1.35,1.216-2.021c0.589-0.655,1.161-1.294,1.413-2.147c0.897-3.112,0.244-6.563-0.77-8.511
		c-0.312-0.587-1.134-1.366-0.164-1.798c0.692-0.308,1.82,0.311,2.492,0.515c0.295,0.157,6.649,1.809,11.668,2.955
		c0.685,0.143,1.688,0.352,2.671,0.556c0.979,0.213,1.919,0.526,2.444,1.053c0.935,0.929-0.197,3.56-0.178,4.735
		c0.043,2.132,1.001,4.414,2.323,6.229c0.59,0.801,0.107,0.144,0.459,0.622c0.038,0.044,0.052,0.063,0.087,0.096
		c0.941,0.991,2.766,2.589,4.883,3.86c1.048,0.658,2.19,1.107,3.276,1.401c1.09,0.269,2.132,0.367,3.012,0.033
		c1.779-0.642,1.389-3.854,1.685-5.151c0.631-2.809,0.08-5.125-1.422-7.584c-0.246-0.397-0.959-0.923-1.413-1.432
		c-0.458-0.521-0.659-1.013,0.062-1.322c0.52-0.234,1.384-0.027,1.936,0.011c2.713,0.221,6.256,0.345,8.211,1.894
		c1.159,0.933,1.728,2.226,2.244,3.616c0.517,1.382,0.975,2.86,2.034,4.118c-0.36,0.429-0.599,1.068-0.754,1.494
		c-0.282,0.764-0.245,1.37,0.296,1.994c0.932,1.043,2.445,1.179,4.122,0.77c1.503-0.371,1.653-1.379,1.376-2.359
		c-0.088-0.321-0.194-0.564-0.387-0.75c0.174-0.217,0.276-0.457,0.301-0.706c0.058-0.005,0.109-0.006,0.167-0.015
		c0.557-0.103,1.097-0.386,1.621-0.577c0.525-0.197,1.1-0.367,1.17-0.902c0.07-0.504-0.239-1.288-0.509-1.696
		c-0.51-0.747-1.873-1.42-2.95-1.062c-0.617,0.201-1.252,0.55-1.755,0.944c-0.385,0.294-0.67,0.646-0.998,0.977
		c-1.387-1.117-2.196-2.913-3.495-4.491c-0.645-0.779-1.413-1.538-2.414-2.166c-1.002-0.644-2.224-1.052-3.814-1.385
		c0.727,0.162,1.635,0.039,2.543-0.143c0.908-0.193,1.824-0.391,2.56-0.547c1.333-0.289,2.398-0.518,3.415-0.801
		c1.009-0.311,1.979-0.637,3.144-1.043c2.458-0.988,3.708,0.314,4.733,2.136c1.026,1.815,1.75,4.165,3.295,5.095
		c0.462,0.312,4.092,1.675,4.693,1.844c0.924,0.264,1.864,0.479,2.795,0.73c0.807,0.219,1.51,0.136,2.115-0.139
		C189.199,302.061,189.686,301.567,190.084,300.994z"/>

</g>
</svg>
