<svg id="Layer_1" data-name="Layer 1" xmlns="http://www.w3.org/2000/svg" viewBox="0 0 922.201 674.906">
  <path d="M922.2,674.906H0c10.105-25.769,28.766-47.63,55.072-54.115,38.482-9.474,79.206,16.575,117.6,6.781,21.814-5.558,38.988-21.759,57.034-35.212,68.08-50.759,161.377-65.761,241.937-38.894,42.11,14.036,80.483,38.583,123.62,49.023,55.78,13.5,114.114,2.3,171.475.459C822.606,601.15,902.652,623.913,922.2,674.906Z" fill="#f3f5fd"></path>
  <polygon points="607.954 413.288 287.824 413.288 287.824 0 539.824 0 607.954 72 607.954 413.288" fill="#dee8f5"></polygon>
  <polygon points="539.824 0 539.824 72 607.954 72 539.824 0" fill="#f3f5fd"></polygon>
  <g>
    <polygon points="859.938 353.922 651.349 353.922 651.349 84.634 815.546 84.634 859.938 131.548 859.938 353.922" fill="#f3f5fd"></polygon>
    <polygon points="815.546 84.634 815.546 131.548 859.938 131.548 815.546 84.634" fill="#dee8f5"></polygon>
  </g>
  <g>
    <polygon points="244.429 353.922 35.84 353.922 35.84 84.634 200.037 84.634 244.429 131.548 244.429 353.922" fill="#f3f5fd"></polygon>
    <polygon points="200.037 84.634 200.037 131.548 244.429 131.548 200.037 84.634" fill="#dee8f5"></polygon>
  </g>
  <g>
    <g>
      <path d="M262.478,308.8a7.249,7.249,0,0,1-6.273-10.863l31.406-54.57a7.247,7.247,0,1,1,12.561,7.23l-31.407,54.57A7.24,7.24,0,0,1,262.478,308.8Z" fill="#80888B"></path>
      <path d="M311.083,253.923q-1.736,0-3.5-.149a40.769,40.769,0,1,1,6.935-81.243h0a40.77,40.77,0,0,1-3.438,81.392Zm-.049-67.048a26.3,26.3,0,1,0,2.255.1C312.533,186.907,311.78,186.875,311.034,186.875Z" fill="#80888B"></path>
    </g>
    <g>
      <path d="M209.976,662.2l-20.853-2.48c.938-7.893,2-17.374,2.072-18.929,0,.1,0,.182,0,.245h21C212.19,641.663,212.19,643.579,209.976,662.2Z" fill="#e69e87"></path>
      <path d="M126.3,664.706l-21-.067s.069-21.685.069-23.606h21C126.37,642.96,126.3,664.706,126.3,664.706Z" fill="#e69e87"></path>
      <path d="M217.723,654.935c-1.738-44.009-1.843-90.231-2.387-134.356-7.226-47.592-11.019-99.792-19.935-147.05l-.266.079-.782-5.33-76.077-4.691s-1.984,37.277-2.676,49.7c-3.708,66.587-11.233,173.615-15.712,241.088l36.868,3.115c6.585-66.359,17.322-172.075,23.272-237.479,6.53,33.327,12.688,70.856,18.485,104.578,1.269,43.078,2.331,87.97,2.215,130.978Z" fill="#FFC107"></path>
      <path d="M151.828,672.829a4.109,4.109,0,0,0,4.09-4.127c0-.1,0-.2-.013-.3h0a4.109,4.109,0,0,0-2.659-3.529L128.8,656.687a3.463,3.463,0,0,0-2.872.32,19.112,19.112,0,0,1-11.468,3.4,17.023,17.023,0,0,1-8.82-3.223,1.547,1.547,0,0,0-2.527,1.2v11.952a2.678,2.678,0,0,0,2.678,2.678h.01Z" fill="#c1d8ed"></path>
      <path d="M235.562,672.829a4.108,4.108,0,0,0,4.089-4.126c0-.1-.005-.2-.013-.3h0a4.108,4.108,0,0,0-2.658-3.529l-24.443-8.186a3.463,3.463,0,0,0-2.872.32,19.112,19.112,0,0,1-11.468,3.4,17.026,17.026,0,0,1-8.821-3.223,1.547,1.547,0,0,0-2.527,1.2v11.952a2.678,2.678,0,0,0,2.678,2.678h.011Z" fill="#c1d8ed"></path>
      <g>
        <path d="M142.926,261.054s7.732-4.1,6.006-25.156l15.976-2.963s-1.8,18.879,6.287,24.872Z" fill="#e69e87"></path>
        <path d="M139.867,227.733c1.106,6.388,4.592,12.438,10.227,14.5,6.69,2.45,11.645,2.616,19.358,2.616,10.525,0,10.177-10.977,10.473-22.039.3-11.1-.587-23.018-4.747-26.888-8.3-7.724-32.673-2.833-35.637,10.087C138.01,212.692,138.81,221.652,139.867,227.733Z" fill="#e69e87"></path>
      </g>
      <path d="M186.427,195.8c-1.76-6.457-7.248-9.611-16.322-7.239-6.454,1.687-7.271.17-12.737-2.461-3.13-1.507-13.4-.819-15.941,6.132-2.724,7.446-11.151,1.416-11.934,13.546-.655,10.153,2.777,24.666,9.673,32.833,2.388,2.827,6.283,6.216,9.3,7.054,2.963.824,15.773.1,17.018-.634,6.117-3.632,5.489-20.29,4.519-30.976-.159-1.758.164-4.68,4.676-4.68,3.1,0,4.817-.074,6.418-1.228C181.1,208.147,188.189,202.256,186.427,195.8Z" fill="#0f1011"></path>
      <path d="M176.062,224.908a6.143,6.143,0,0,1-12.245,1,6.041,6.041,0,0,1,5.418-6.607c.068-.007.135-.013.2-.017C173.816,219.145,175.785,221.527,176.062,224.908Z" fill="#e69e87"></path>
      <path d="M263.1,293.832s16.852-7.851,19.5-9.973c9.324-7.467,9.128-13.034,7.867-15.387-1.486-2.781-18.975,6.4-18.975,6.4s3.39-4.7,1.561-5.99c-.752-.53-1.785-.038-4.811,2.984-3.449,3.447-9.358,8.283-9.358,8.283Z" fill="#e69e87"></path>
      <path d="M119.213,315.275a53.343,53.343,0,0,1,1.573,11.837c0,21-9.5,30.418-8.8,41.2,1.1,16.945,83.429,12.941,87.624,3.316,4.319-9.926-4.447-16.042-4.063-48.509.041-3.534.314-7.23.69-10.994l16.2,29A10.9,10.9,0,0,0,230.1,343.05l44.884-52.5L258.13,278.7l-34.138,38.408-26.7-47.8c-2.528-7.551-8.283-12.609-20.023-13.112-4.015-.172-23.606-.2-37.95-.2-9.636,0-17.547,2.957-22.116,7.525l-.069.068a16.776,16.776,0,0,0-4.762,13.016C112.817,283.381,114.3,296.829,119.213,315.275Z" fill="#D6D6D6"></path>
    </g>
  </g>
  <g>
    <g>
      <rect x="377.922" y="100.958" width="11.955" height="77.565" transform="translate(211.253 -230.528) rotate(45)" fill="#fff"></rect>
      <rect x="377.922" y="100.958" width="11.955" height="77.565" transform="translate(754.169 -32.905) rotate(135)" fill="#fff"></rect>
    </g>
    <g>
      <rect x="505.902" y="100.958" width="11.955" height="77.565" transform="translate(248.738 -321.024) rotate(45)" fill="#fff"></rect>
      <rect x="505.902" y="100.958" width="11.955" height="77.565" transform="translate(972.645 -123.4) rotate(135)" fill="#fff"></rect>
    </g>
  </g>
  <path d="M392.408,265.122,383.573,257c.968-1.056,24.2-25.871,67.816-25.871,43.871,0,64.338,25.122,65.188,26.191l-9.395,7.466c-.7-.863-17.988-21.657-55.793-21.657C413.281,243.13,392.612,264.9,392.408,265.122Z" fill="#fff"></path>
  <g>
    <g>
      <rect x="744.001" y="443.75" width="10.59" height="56.156" transform="translate(-88.456 185.057) rotate(-13.302)" fill="#f0f6ff"></rect>
      <g>
        <rect x="733.374" y="460.645" width="48.777" height="5.818" transform="translate(164.436 1124.651) rotate(-79.548)" fill="#c1d8ed"></rect>
        <rect x="758.99" y="439.307" width="5.386" height="5.818" transform="translate(184.87 1107.799) rotate(-79.225)" fill="#dee8f5"></rect>
      </g>
      <rect x="747.589" y="450.1" width="3.415" height="50.584" transform="translate(-122.099 307.72) rotate(-21.502)" fill="#80888B"></rect>
      <rect x="737.554" y="471.828" width="27.948" height="35.72" fill="#c1d8ed"></rect>
    </g>
    <g>
      <rect x="652.495" y="572.069" width="10.453" height="102.836" fill="#c1d8ed"></rect>
      <rect x="643.891" y="572.069" width="10.453" height="102.836" fill="#dee8f5"></rect>
    </g>
    <g>
      <rect x="782.7" y="572.069" width="10.453" height="102.836" fill="#c1d8ed"></rect>
      <rect x="774.097" y="572.069" width="10.453" height="102.836" fill="#dee8f5"></rect>
    </g>
    <g>
      <rect x="681.166" y="572.069" width="10.453" height="102.836" fill="#c1d8ed"></rect>
      <rect x="672.563" y="572.069" width="10.453" height="102.836" fill="#dee8f5"></rect>
    </g>
    <g>
      <rect x="811.371" y="572.069" width="10.453" height="102.836" fill="#c1d8ed"></rect>
      <rect x="802.768" y="572.069" width="10.453" height="102.836" fill="#dee8f5"></rect>
    </g>
    <rect x="681.231" y="506.244" width="140.594" height="68.291" fill="#c1d8ed"></rect>
    <rect x="643.891" y="506.244" width="140.594" height="68.291" fill="#dee8f5"></rect>
    <g opacity="0.53">
      <rect x="651.455" y="515.952" width="125.467" height="48.573" fill="#f3f5fd"></rect>
    </g>
    <circle cx="714.188" cy="540.239" r="5.572" fill="#fff"></circle>
  </g>
</svg>