<svg  id="Layer_1" data-name="Layer 1" xmlns="http://www.w3.org/2000/svg" viewBox="0 0 1159.157 661.152">
    <g>
        <rect x="207.823" y="129.887" width="70.404" height="71.601" transform="translate(486.049 331.375) rotate(-180)"
              fill="#c1d8ed"></rect>
        <g>
            <rect x="211.248" y="129.887" width="71.601" height="71.601"
                  transform="translate(494.097 331.375) rotate(-180)" fill="#dee8f5"></rect>
            <rect x="216.184" y="134.823" width="61.728" height="61.728"
                  transform="translate(494.097 331.375) rotate(-180)" fill="#fff"></rect>
            <g>
                <polygon points="265.427 148.884 265.427 172.301 242.138 149.012 265.427 148.884"
                         fill="#f3f5fd"></polygon>
                <circle cx="244.501" cy="169.417" r="13.074" fill="#dee8f5"></circle>
            </g>
        </g>
    </g>
    <path d="M64.064,661.152c-42.118,0-72.686-39.925-61.873-80.631,17.265-64.995,66.723-152.137,204.967-193.469,183.608-54.9,173.315-276.162,319.966-276.162s147.424,112.369,191.148,123.8,190.293-22.509,223.034,77.662c60.521,185.167,141.757,95.9,204.8,238.5a250.954,250.954,0,0,1,10.166,27.427c12.7,41.177-18.135,82.881-61.227,82.881Z"
          fill="#f3f5fd"></path>
    <g>
        <g>
            <rect x="409.114" y="8.823" width="313.451" height="568.772" rx="34.026" fill="#fff"></rect>
            <path d="M688.539,586.419h-245.4a42.9,42.9,0,0,1-42.85-42.85V42.849A42.9,42.9,0,0,1,443.141,0h245.4a42.9,42.9,0,0,1,42.849,42.849v500.72A42.9,42.9,0,0,1,688.539,586.419ZM443.141,17.646a25.232,25.232,0,0,0-25.2,25.2v500.72a25.231,25.231,0,0,0,25.2,25.2h245.4a25.231,25.231,0,0,0,25.2-25.2V42.849a25.232,25.232,0,0,0-25.2-25.2Z"
                  fill="#dee8f5"></path>
        </g>
        <path d="M512.108,8.823H619.571a0,0,0,0,1,0,0V29.673a15.607,15.607,0,0,1-15.607,15.607h-76.25a15.607,15.607,0,0,1-15.607-15.607V8.823A0,0,0,0,1,512.108,8.823Z"
              fill="#dee8f5"></path>
    </g>
    <g>
        <rect x="435.945" y="58.422" width="67.674" height="67.674" fill="#dee8f5"></rect>
        <rect x="519.364" y="97.713" width="176.371" height="17.945" fill="#dee8f5"></rect>
        <rect x="519.364" y="65.572" width="125.613" height="17.945" fill="#dee8f5"></rect>
    </g>
    <rect x="435.945" y="145.467" width="259.789" height="195.764" fill="#dee8f5"></rect>
    <g>
        <path d="M498.275,199.832c-.169-16.45,6.332-26.644,15.147-32.241,8.7-5.523,35.973-10.33,46.314,9.719,6.749,13.082,4.085,17.759,6,38.712s9.256,23.152,16.7,48.549c5.841,19.922-26.88,30.5-55.219,29.584s-46.3-7.188-47.945-25.211C476.911,243.079,498.608,232.069,498.275,199.832Z"
              fill="#0f1011"></path>
        <path d="M515.159,245.313s8.513-4.614,6.389-27.891l17.645-3.439s-1.794,20.9,7.208,27.452Z"
              fill="#EDA59F"></path>
        <g opacity="0.15">
            <path d="M542.739,237.1,527.953,226l11.531-.226A31.805,31.805,0,0,0,542.739,237.1Z"></path>
        </g>
        <path d="M511.437,208.481c1.289,7.057,5.207,13.714,11.462,15.94a44.814,44.814,0,0,0,21.442,2.7c19.334-1.764,15.1-45.724,5.838-54.186s-36.174-2.8-39.323,11.521C509.228,191.861,510.211,201.765,511.437,208.481Z"
              fill="#EDA59F"></path>
        <g>
            <circle cx="539.05" cy="201.18" r="1.603" fill="#0f1011"></circle>
            <circle cx="551.687" cy="200.028" r="1.603" fill="#0f1011"></circle>
            <path d="M554.427,196.586h0l-4.247-.014a.754.754,0,0,1,0-1.507h0l4.247.014a.754.754,0,0,1,0,1.507Z"
                  fill="#0f1011"></path>
            <path d="M535.557,198.308a.753.753,0,0,1-.182-1.484l4.177-1.046a.753.753,0,0,1,.366,1.461l-4.177,1.046A.73.73,0,0,1,535.557,198.308Z"
                  fill="#0f1011"></path>
            <path d="M539.908,213.8s5.923.57,10.057-.917c0,0,0,3.9-4.676,4.324S539.908,213.8,539.908,213.8Z"
                  fill="#fff"></path>
        </g>
        <path d="M524.288,190.051a138.7,138.7,0,0,1-4.889,49.18s-13.723-23.124-16-42.469c-2.138-18.134,11.14-28.975,20.159-31.079,34.275-8,36.655,17.006,36.655,17.006-2.216,8.528-39.633,13.819-39.633,13.819"
              fill="#0f1011"></path>
        <path d="M531.02,208.164a6.8,6.8,0,1,1-13.536,1.234,6.684,6.684,0,0,1,6.15-7.385C528.476,201.811,530.679,204.426,531.02,208.164Z"
              fill="#EDA59F"></path>
        <g opacity="0.15">
            <path d="M546.243,210.006a.553.553,0,0,1-.167-1.08l3.251-1.031L547,202.838a.553.553,0,1,1,1-.463L550.593,208a.553.553,0,0,1-.335.759l-3.848,1.22A.539.539,0,0,1,546.243,210.006Z"></path>
        </g>
    </g>
    <g>
        <path d="M632.386,255.72s1.782-13.267,11.2-11.421c5.939,1.165,34.571,3.3,34.68,5.951.268,6.547-25.965,4.946-29.056,10.637Z"
              fill="#EDA59F"></path>
        <path d="M640.167,244.316s13.744-2.7,16.9-1.534c2.793,1.033-3.772,4.986-3.772,4.986Z" fill="#EDA59F"></path>
    </g>
    <path d="M633.387,248.613l-33.55,50.43-22.85-42.88c-2.29-9.97-8.61-16.83-23.12-17.46-.7-.03-1.82-.05-3.27-.08-.29,6.13-38.25,6.11-39.05-.14-10.73.01-19.52,3.3-24.61,8.39-4.81,4.81-6.68,10.54-6.87,16.8l-18.16,59.03a10.89,10.89,0,0,0,7.53,13.72l17.47,4.81h89.44a144.167,144.167,0,0,1-2.1-27.93c.05-4.53.44-9.29.96-14.12l13.98,26.23a10.9,10.9,0,0,0,9.09,5.76c.17.01.35.01.53.01a10.881,10.881,0,0,0,9.07-4.86l43.66-65.64Zm-142.49,71.1-4.85-1.33,3.6-11.68a55.136,55.136,0,0,1,1.28,11.04C490.927,318.413,490.917,319.073,490.9,319.713Z"
          fill="#D6D6D6"></path>
    <path d="M550.594,238.627c-.29,6.13-3.622,15.146-13.909,15.826-13.708.9-24.341-9.719-25.143-15.971h.034C525.072,238.482,542.725,238.5,550.594,238.627Z"
          fill="#EDA59F"></path>
    <g>
        <circle cx="462.743" cy="383.515" r="26.798" fill="#dee8f5"></circle>
        <rect x="501.832" y="373.341" width="193.902" height="20.348" fill="#dee8f5"></rect>
        <rect x="435.945" y="422.261" width="259.789" height="20.348" fill="#dee8f5"></rect>
        <rect x="435.945" y="471.181" width="259.789" height="20.348" fill="#dee8f5"></rect>
        <rect x="435.945" y="520.102" width="259.789" height="20.348" fill="#dee8f5"></rect>
    </g>
    <g>
        <g>
            <path d="M365.641,369.225c6.965,95.063,15.907,190.144,28.644,284.617l20.372-1.887c-4.833-95.2-13.508-190.312-24.123-285.036Z"
                  fill="#EDA59F"></path>
            <path d="M323.264,390.817c-2.777,73.518-9.778,185.006-13.818,259.412l20.365,1.939C339.455,577.209,354.621,467.1,362.887,393Z"
                  fill="#EDA59F"></path>
            <path d="M356.193,660.965a4.108,4.108,0,0,0,4.076-4.427h0a4.106,4.106,0,0,0-2.658-3.529l-24.443-8.187a3.464,3.464,0,0,0-2.872.319,19.1,19.1,0,0,1-11.468,3.4,17.029,17.029,0,0,1-8.821-3.222,1.546,1.546,0,0,0-2.527,1.2v11.952a2.678,2.678,0,0,0,2.689,2.678Z"
                  fill="#c1d8ed"></path>
            <path d="M439.926,660.965A4.109,4.109,0,0,0,444,656.538h0a4.107,4.107,0,0,0-2.659-3.529L416.9,644.822a3.467,3.467,0,0,0-2.873.319,19.1,19.1,0,0,1-11.468,3.4,17.026,17.026,0,0,1-8.82-3.222,1.546,1.546,0,0,0-2.527,1.2v11.952a2.678,2.678,0,0,0,2.689,2.678Z"
                  fill="#c1d8ed"></path>
            <path d="M322.641,351.719s-11.36,50.871-11.36,93.653-13.044,109.044-13.044,109.044,37.481-7.826,62.045,0,70.37-6.261,70.37-6.261L398.718,356.414Z"
                  fill="#FFC107"></path>
        </g>
        <g>
            <path d="M301.163,387.752c0,2.98,1.574,12.943-.957,13.654-1.517.427-3.31-7-3.31-7" fill="#EDA59F"></path>
            <path d="M289.216,386.187s-8.264,20.114,1.162,31.669a1.888,1.888,0,0,0,3.346-1.081c.458-7.791,2.029-23.794,7.166-21.925V382.287"
                  fill="#EDA59F"></path>
        </g>
        <path d="M500.367,234.964c1.245-1.823,1.465-4.224,1.465-6.576a15.629,15.629,0,0,0-29.507-7.192,15.629,15.629,0,0,0-29.507,7.192,13.573,13.573,0,0,0,2.586,8.6c6.035,7.447,26.921,27.3,26.921,27.3S494.647,243.341,500.367,234.964Z"
              fill="#fd5d76"></path>
        <path d="M474.808,280.2s11.8-14.371,13.264-17.429c5.175-10.768,2.59-15.7.435-17.276-2.544-1.864-14.336,13.982-14.336,13.982s1.023-5.7-1.185-6.075c-.907-.153-1.626.737-3.046,4.772-1.618,4.6-4.852,11.515-4.852,11.515Z"
              fill="#EDA59F"></path>
        <g>
            <g>
                <path d="M347.158,248.478s8.041-3.454,8.041-24.581l16.165-1.647s-3.332,18.668,4.234,25.3Z"
                      fill="#EDA59F"></path>
                <path d="M346.832,215.018c.58,6.458,3.56,12.772,9.008,15.289a40.5,40.5,0,0,0,19.079,4.189c17.549,0,17.35-39.918,9.706-48.3s-32.332-5.494-36.343,7.141C346.208,199.876,346.28,208.872,346.832,215.018Z"
                      fill="#EDA59F"></path>
            </g>
            <path d="M383.7,202.414a66.84,66.84,0,0,0,10.167-.857s-1.029-25.922-28.559-24.444a51.3,51.3,0,0,0-10.687.63c-8.275,1.269-20.006,9.729-21.9,30.9-.868,9.713-4.216,18.869-6.771,24.666a4.471,4.471,0,0,0,4.084,6.285l58.979-.467a4.466,4.466,0,0,0,4.28-5.759C390.089,222.743,384.221,216.231,383.7,202.414Z"
                  fill="#0f1011"></path>
        </g>
        <path d="M463.407,266.834l-34.138,38.408-26.7-47.794c-2.527-7.552-8.283-12.61-20.023-13.113-4.015-.172-23.606-.2-37.949-.2-9.637,0-17.548,2.957-22.116,7.525a20.151,20.151,0,0,0-5.021,8.129l-.138-.05L294.368,322.15a10.89,10.89,0,0,0-.552,2.162l-9.264,62.414,21.568,3.2,9.1-61.305,9.27-25.207a53.311,53.311,0,0,1,1.573,11.837c0,21-9.5,30.418-8.8,41.2,1.1,16.945,83.428,12.941,87.623,3.316,4.319-9.926-4.447-16.042-4.063-48.51.041-3.533.315-7.23.69-10.993l16.2,29a10.9,10.9,0,0,0,8.337,5.52,10.667,10.667,0,0,0,1.182.065,10.9,10.9,0,0,0,8.148-3.66l44.884-52.5Z"
              fill="#D6D6D6"></path>
    </g>
    <g>
        <polygon points="820.866 621.446 810.319 661.152 825.209 661.152 841.959 621.446 820.866 621.446"
                 fill="#dee8f5"></polygon>
        <polygon points="1013.193 621.446 1023.74 661.152 1008.85 661.152 992.1 621.446 1013.193 621.446"
                 fill="#dee8f5"></polygon>
        <g>
            <polygon points="888.701 621.446 878.154 661.152 893.044 661.152 909.795 621.446 888.701 621.446"
                     fill="#c1d8ed"></polygon>
            <polygon points="1081.029 621.446 1091.575 661.152 1076.686 661.152 1059.935 621.446 1081.029 621.446"
                     fill="#c1d8ed"></polygon>
        </g>
        <path d="M1096.82,564.248H904.954L917.966,422.7a13.637,13.637,0,0,1,13.58-12.389h164.476A13.638,13.638,0,0,1,1109.6,425.2Z"
              fill="#c1d8ed"></path>
        <rect x="796.017" y="498.08" width="130.441" height="130.441" fill="#c1d8ed"></rect>
        <path d="M1059.635,564.248H874.844L887.856,422.7a13.638,13.638,0,0,1,13.581-12.389h157.4a13.638,13.638,0,0,1,13.581,14.886Z"
              fill="#dee8f5"></path>
        <g opacity="0.48">
            <path d="M1059.635,564.248H874.844L887.856,422.7a13.638,13.638,0,0,1,13.581-12.389h157.4a13.638,13.638,0,0,1,13.581,14.886Z"
                  fill="#c1d8ed"></path>
        </g>
        <path d="M994.415,498.08h111.094a19.347,19.347,0,0,1,19.347,19.347v97.584a19.347,19.347,0,0,1-19.347,19.347H994.415a0,0,0,0,1,0,0V498.08A0,0,0,0,1,994.415,498.08Z"
              fill="#c1d8ed"></path>
        <path d="M994.415,634.359h-198.4a21.227,21.227,0,0,1-21.227-21.226V519.306a21.227,21.227,0,0,1,42.453,0v72.6H973.189v-72.6a21.226,21.226,0,0,1,42.452,0v93.827A21.226,21.226,0,0,1,994.415,634.359Z"
              fill="#dee8f5"></path>
        <path d="M806.129,550.008H973.478a0,0,0,0,1,0,0v45.406a0,0,0,0,1,0,0H806.129a13.566,13.566,0,0,1-13.566-13.566V563.574A13.566,13.566,0,0,1,806.129,550.008Z"
              fill="#f3f5fd"></path>
        <g opacity="0.15">
            <path d="M806.129,550.008H973.478a0,0,0,0,1,0,0v45.406a0,0,0,0,1,0,0H806.129a13.566,13.566,0,0,1-13.566-13.566V563.574A13.566,13.566,0,0,1,806.129,550.008Z"
                  fill="#c1d8ed"></path>
        </g>
    </g>
    <g>
        <g>
            <rect x="225.267" y="555.477" width="10.142" height="99.769"
                  transform="translate(460.675 1210.724) rotate(-180)" fill="#c1d8ed"></rect>
            <rect x="233.613" y="555.477" width="10.142" height="99.769"
                  transform="translate(477.368 1210.724) rotate(-180)" fill="#dee8f5"></rect>
        </g>
        <g>
            <rect x="98.945" y="555.477" width="10.142" height="99.769"
                  transform="translate(208.031 1210.724) rotate(-180)" fill="#c1d8ed"></rect>
            <rect x="107.291" y="555.477" width="10.142" height="99.769"
                  transform="translate(224.724 1210.724) rotate(-180)" fill="#dee8f5"></rect>
        </g>
        <g>
            <rect x="197.45" y="555.477" width="10.142" height="99.769"
                  transform="translate(405.042 1210.724) rotate(-180)" fill="#c1d8ed"></rect>
            <rect x="205.797" y="555.477" width="10.142" height="99.769"
                  transform="translate(421.735 1210.724) rotate(-180)" fill="#dee8f5"></rect>
        </g>
        <g>
            <rect x="71.129" y="555.477" width="10.142" height="99.769"
                  transform="translate(152.399 1210.724) rotate(-180)" fill="#c1d8ed"></rect>
            <rect x="79.475" y="555.477" width="10.142" height="99.769"
                  transform="translate(169.092 1210.724) rotate(-180)" fill="#dee8f5"></rect>
        </g>
        <rect x="71.129" y="491.615" width="136.4" height="66.254" fill="#c1d8ed"></rect>
        <rect x="107.354" y="491.615" width="136.4" height="66.254" fill="#dee8f5"></rect>
        <g opacity="0.53">
            <rect x="114.693" y="501.034" width="121.724" height="47.124" fill="#f3f5fd"></rect>
        </g>
        <circle cx="175.555" cy="524.596" r="5.406" fill="#fff"></circle>
    </g>
    <g>
        <path d="M167.028,427.7c-3.838-1.256-7.777.157-11.546,3.02,4.964-12.535,7.013-23.857-1.474-24.367-5.938-.357-10.487,4.2-13.943,10.676-1.215-11.388-4.351-19.882-11.375-17.066-7.711,3.092-8.884,13.687-7.715,24.772-3.4-5.662-7.055-8.819-10.376-5.5-9.912,9.912,14.418,37.847,14.418,37.847h6.042l3.449,3.743c-.7,1.476-1.081,2.355-1.081,2.355l4.38,8.913S182.961,432.918,167.028,427.7Z"
              fill="#8ddbe0"></path>
        <polygon points="156.198 492.06 122.001 492.06 116.277 452.139 161.923 452.139 156.198 492.06"
                 fill="#c1d8ed"></polygon>
    </g>
</svg>
