<svg id="Layer_1" data-name="Layer 1" xmlns="http://www.w3.org/2000/svg" viewBox="0 0 764.805 578.977">
  <path d="M72.2,578.977c-37.095,0-65.632-28.923-70.438-65.706-21.127-161.708,154.333-265.3,194.694-338.682C265.732,48.626,324.48,8.569,423.491,8.569,569,8.569,559.68,168.6,628.2,269.544c51.051,75.213,136.6,104.589,136.6,236.975,0,37.091-47.431,72.458-84.522,72.458Z" fill="#f3f5fd"></path>
  <path d="M681.71,578.977H645.237c-6.339-8.339-17.455-25.16-10.271-32.344,3.268-3.261,6.86-.159,10.2,5.4-1.147-10.9,0-21.311,7.585-24.353,6.9-2.762,9.991,5.585,11.184,16.784,3.4-6.37,7.871-10.852,13.7-10.5,8.347.5,6.332,11.63,1.449,23.953,3.705-2.815,7.577-4.2,11.35-2.966C698.343,557.545,690.962,568.631,681.71,578.977Z" fill="#8ddbe0"></path>
  <g>
    <path d="M605.015,570.668l21-.068s-.07-21.685-.07-23.605h-21C604.945,548.921,605.015,570.668,605.015,570.668Z" fill="#e69e87"></path>
    <g>
      <path d="M521.34,568.158l20.853-2.48c-.939-7.893-2-17.374-2.072-18.928,0,.1,0,.181,0,.245h-21C519.126,547.624,519.126,549.54,521.34,568.158Z" fill="#e69e87"></path>
      <path d="M550.587,561.527l-37-.63c1.738-44.032,1.844-90.219,2.386-134.357C523.2,378.966,527,326.724,535.913,279.491l.268.079.781-5.33,76.077-4.7s2.04,37.277,2.727,49.7c3.944,71.395,11.143,171.95,15.662,241.088l-36.869,3.115c-6.643-67.786-16.923-166.556-23.246-237.767-7.261,34.67-12.2,70.568-18.514,104.94C551.536,473.649,550.469,518.629,550.587,561.527Z" fill="#FFC107"></path>
      <path d="M579.487,578.791a4.108,4.108,0,0,1-4.076-4.428h0a4.108,4.108,0,0,1,2.658-3.529l24.443-8.186a3.457,3.457,0,0,1,2.872.319,19.112,19.112,0,0,0,11.468,3.4,17.031,17.031,0,0,0,8.82-3.222,1.547,1.547,0,0,1,2.528,1.2V576.3a2.678,2.678,0,0,1-2.689,2.678Z" fill="#c1d8ed"></path>
      <path d="M495.753,578.791a4.108,4.108,0,0,1-4.076-4.428h0a4.107,4.107,0,0,1,2.659-3.529l24.442-8.186a3.457,3.457,0,0,1,2.872.319,19.114,19.114,0,0,0,11.468,3.4,17.035,17.035,0,0,0,8.821-3.222,1.546,1.546,0,0,1,2.527,1.2V576.3a2.678,2.678,0,0,1-2.689,2.678Z" fill="#c1d8ed"></path>
    </g>
    <g>
      <g>
        <path d="M589.727,160.962s-7.733-4.1-6.006-25.156l-15.976-2.963s1.795,18.879-6.288,24.873Z" fill="#e69e87"></path>
        <g opacity="0.15">
          <path d="M564.731,153.769,578,143.615l-10.424-.108A28.756,28.756,0,0,1,564.731,153.769Z"></path>
        </g>
        <path d="M592.786,127.641c-1.106,6.388-4.592,12.438-10.228,14.5a40.51,40.51,0,0,1-19.357,2.615c-17.49-1.434-14.03-41.2-5.727-48.926S590.147,93,593.112,105.919C594.645,112.6,593.839,121.56,592.786,127.641Z" fill="#e69e87"></path>
        <g>
          <circle cx="567.767" cy="121.271" r="1.449" fill="#0f1011"></circle>
          <circle cx="556.336" cy="120.334" r="1.449" fill="#0f1011"></circle>
          <path d="M553.825,117.246h.009l3.839-.049a.681.681,0,0,0-.018-1.361l-3.839.048a.681.681,0,0,0,.009,1.362Z" fill="#0f1011"></path>
          <path d="M570.9,118.646a.681.681,0,0,0,.158-1.344l-3.784-.91a.681.681,0,1,0-.319,1.324l3.785.911A.728.728,0,0,0,570.9,118.646Z" fill="#0f1011"></path>
        </g>
        <path d="M582.784,141.379c.332,1.063.564,1.526,1.521.957,3.756-2.232,11.209-7.088,14.089-25.282,2.581-16.3-7.476-23.026-15.5-25.425-6.913-2.068-21.306-.607-29.073,3.616-5.761,3.133-1.546,11.535-1.546,11.535,2.884.133,2.252-7.522,9.056-7.522,5.26,0,9.893,7.783,14.818,7.99,4.508.19,5.434,2.938,5.274,4.7C580.457,122.63,581.61,137.624,582.784,141.379Z" fill="#0f1011"></path>
        <path d="M575.3,124.817a6.143,6.143,0,0,0,12.244,1,6.04,6.04,0,0,0-5.62-6.624C577.551,119.054,575.582,121.436,575.3,124.817Z" fill="#e69e87"></path>
        <g opacity="0.15">
          <path d="M561.335,129.308a.5.5,0,0,0,.147-.978l-2.947-.905,2.062-4.59a.5.5,0,0,0-.913-.41l-2.293,5.106a.5.5,0,0,0,.309.684l3.488,1.071A.509.509,0,0,0,561.335,129.308Z"></path>
        </g>
        <path d="M567.1,132.683s-5.349.564-9.1-.746c0,0,.03,3.523,4.262,3.87S567.1,132.683,567.1,132.683Z" fill="#fff"></path>
      </g>
      <path d="M553.346,95.786c-5.185,3.472-4.164,10.125-3.191,15.9h6.418l2.692-9.342,3.283,9.342,25.022.866-3.017-12.409" fill="#0f1011"></path>
      <circle cx="600.401" cy="132.843" r="14.006" fill="#0f1011"></circle>
    </g>
    <g>
      <g>
        <path d="M480.664,162.107s-.15-12.01-8.735-11.385c-5.416.394-31.151-.8-31.534,1.543-.948,5.8,22.592,7.218,24.728,12.623Z" fill="#e69e87"></path>
        <path d="M474.969,151.107s-11.949-3.9-14.886-3.2c-2.6.618,2.82,4.85,2.82,4.85Z" fill="#e69e87"></path>
      </g>
      <path d="M530.958,272.11c4.189,9.63,86.519,13.63,87.619-3.31.7-10.78-8.8-20.19-8.8-41.2s14.26-42.77-1.49-58.52c-4.57-4.57-7.39-12.59-17.01-12.6-.72,5.61-34.78,5.63-35.04.13-1.3.02-2.31.04-2.94.07-33.18,1.43-18.6,39.19-18.28,66.93C535.407,256.071,526.637,262.19,530.958,272.11Z" fill="#fff"></path>
      <path d="M556.237,156.61c.26,5.5,3.25,13.59,12.48,14.2,12.3.81,21.84-8.72,22.56-14.33h-.03C579.137,156.48,563.3,156.5,556.237,156.61Z" fill="#e69e87"></path>
      <path d="M613.357,164.007c-4.57-4.57-12.637-7.7-22.257-7.706-3.759,0-2.963-.559-4.462,7.368-1.171,8.559-3.723,24.875-5.65,44.021l-11.942,24.99L559,232.373c.054-6.4.187-12.742.491-18.676,1-19.68,2.449-55.282.439-57.292-.332-.332-8.513.032-9.058.055-7.17.314-11.857,2.669-14.832,6.447L503.079,195.06l-21.406-39.969-18.512,9.914,28,52.279a10.5,10.5,0,0,0,16.588,2.559L532.4,195.8c1.034,9.316,2.516,19.076,2.617,27.812.034,2.845-.015,5.511-.124,8.031l-21.58-.658-.664,21.794,19.432.592c-2.37,10.917-4.912,17.019-2.323,22.963,1.226,2.817,9.633,5.626,20.415,7.273a7.268,7.268,0,0,0,8.268-6.106q.045-.3.065-.606c.406-6.114.47-14.037.471-22.7l16.51.5c.111,0,.222.006.334.006a10.817,10.817,0,0,0,2.743-.369,224.137,224.137,0,0,0,1.454,24.35,8.218,8.218,0,0,0,8.734,7.2c25.952-1.825,29.394-10.343,29.825-17.076.7-10.78-8.8-20.19-8.8-41.2S629.107,179.757,613.357,164.007Z" fill="#D6D6D6"></path>
      <g>
        <g>
          <path d="M517.8,179l12.142,50.972a5.4,5.4,0,0,1-5.251,6.649H453.1a5.4,5.4,0,0,1-5.206-3.969l-13.991-50.971a5.4,5.4,0,0,1,5.206-6.828h73.432A5.4,5.4,0,0,1,517.8,179Z" fill="#9ebcea"></path>
          <path d="M555.422,236.616H468.9a3.172,3.172,0,0,1-3.172-3.172h0a3.172,3.172,0,0,1,3.172-3.172h86.519a3.172,3.172,0,0,1,3.172,3.172h0A3.172,3.172,0,0,1,555.422,236.616Z" fill="#9ebcea"></path>
        </g>
        <circle cx="478.991" cy="205.229" r="8.466" fill="#fff"></circle>
      </g>
      <path d="M495.3,243.306c4.49,2.77,11.44,4.08,17.5,4.56l.341-11.04c-2.851-.08-7.231-.38-11.52-.21-1.939-1.58-3.055-2.05-5.045-4.04-2.118-2.118-7.676-3.39-8.726,0S491.355,240.871,495.3,243.306Z" fill="#e69e87"></path>
    </g>
  </g>
  <g>
    <g>
      <path d="M116.957,527.015c-7.512-2.156-13.167-8.877-15.413-16.362s-1.455-15.607.74-23.107c1.79-6.121,4.5-12.038,5.173-18.38,2.227-21.118-18.257-42.695-8.618-61.617,3.117-6.118,9.149-10.9,10.226-17.683.89-5.608-1.873-11.059-3.247-16.57-1.89-7.583-.932-16.188,3.988-22.261s14.218-8.726,21-4.837c8.867,5.086,9.636,17.644,7.357,27.609s-6.5,20.217-3.718,30.053c2.654,9.375,11.291,16.434,12.839,26.053,1.288,8-2.616,15.794-4.331,23.71-2.7,12.442.048,25.339.166,38.068S139.64,518.7,116.957,527.015Z" fill="#8ddbe0"></path>
      <path d="M105.365,528.224A26.426,26.426,0,0,1,87.493,508.4c-1.47-7.575.335-16.083-3.811-22.59C78.065,476.994,72.3,476,65.31,468.226c-10.753-11.951-11.131-17.244-10.422-39.378.3-9.36-12.624-19.923-8.072-28.916,4.01-7.924,16.2-7.964,23.113-2.389s9.949,14.513,12.961,22.867S89.7,437.6,97.335,442.139c4.579,2.719,10.574,3.976,13.1,8.663,2.032,3.766,1.008,8.363.191,12.563-2.053,10.56-1.539,23.44,7.323,29.539,4,2.751,9.234,3.7,12.52,7.27,3.25,3.531,3.774,8.762,3.554,13.555a60.356,60.356,0,0,1-7.423,26.292" fill="#dee8f5"></path>
      <path d="M116.051,535.577a29.163,29.163,0,0,1-2.641-33.8c5.425-8.595,15.535-14.515,17.658-24.455,1.891-8.853-3.353-18-1.783-26.917,1.707-9.695,10.663-16.057,17.778-22.861a24.812,24.812,0,0,0,4.724-5.7c3.129-5.632,2.257-12.54,3.319-18.895,2.034-12.169,12.061-22.963,24.234-24.974,10.676-1.765,18.323,4.368,18.323,15.663,0,13.381-10.023,19.115-15.137,25.173a47.046,47.046,0,0,0-10.965,31.351c.36,12.774,5.8,26.374-.011,37.756-4.265,8.352-13.373,12.805-20.53,18.866a52.184,52.184,0,0,0-18.174,37.208" fill="#fff"></path>
    </g>
    <rect x="86.104" y="514.598" width="64.379" height="64.379" fill="#90999B"></rect>
    <g opacity="0.42">
      <rect x="86.104" y="527.151" width="64.379" height="12.566" fill="#fff"></rect>
    </g>
  </g>
  <g>
    <circle cx="257.584" cy="135.831" r="135.831" fill="#dee8f5"></circle>
    <circle cx="257.584" cy="135.831" r="108.964" fill="#fff"></circle>
    <circle cx="257.584" cy="135.831" r="81.552" fill="#dee8f5"></circle>
    <circle cx="257.584" cy="135.831" r="54.223" fill="#fff"></circle>
    <circle cx="257.584" cy="135.831" r="27.739" fill="#dee8f5"></circle>
    <g>
      <g>
        <polygon points="352.853 233.292 351.509 244.795 336.19 229.476 337.534 217.973 352.853 233.292" fill="#90999B"></polygon>
        <polygon points="364.092 232.212 352.589 233.556 337.27 218.237 348.773 216.893 364.092 232.212" fill="#90999B"></polygon>
      </g>
      <path d="M306.141,123.556h0a2.718,2.718,0,0,1,2.718,2.718V253.162a0,0,0,0,1,0,0h-5.436a0,0,0,0,1,0,0V126.275a2.718,2.718,0,0,1,2.718-2.718Z" transform="translate(-43.523 271.643) rotate(-45)" fill="#90999B"></path>
    </g>
    <g>
      <g>
        <polygon points="392.911 149.24 398.617 159.319 377.209 155.998 371.503 145.919 392.911 149.24" fill="#90999B"></polygon>
        <polygon points="401.345 141.734 392.853 149.61 371.445 146.288 379.937 138.412 401.345 141.734" fill="#90999B"></polygon>
      </g>
      <path d="M328.681,75.746h0a2.718,2.718,0,0,1,2.718,2.718V205.351a0,0,0,0,1,0,0h-5.436a0,0,0,0,1,0,0V78.464a2.718,2.718,0,0,1,2.718-2.718Z" transform="translate(139.402 443.795) rotate(-81.181)" fill="#90999B"></path>
    </g>
  </g>
</svg>