<svg id="Layer_1" data-name="Layer 1" xmlns="http://www.w3.org/2000/svg" viewBox="0 0 879.19 652.165">
  <g>
    <path d="M191.068,197.477c.3,3.67-3.525,7.085-4.155,10.543-.652,3.578,1.686,8.122.16,11.332-1.547,3.256-6.562,4.313-8.882,7.041s-2.554,7.849-5.518,9.9c-2.922,2.022-7.783.447-11.209,1.666-3.311,1.18-6.066,5.5-9.736,5.8s-7.085-3.525-10.543-4.155c-3.577-.652-8.122,1.686-11.332.16-3.255-1.547-4.312-6.562-7.041-8.882s-7.849-2.554-9.9-5.518c-2.023-2.922-.447-7.783-1.667-11.209-1.179-3.311-5.5-6.066-5.8-9.736s3.524-7.085,4.155-10.543c.652-3.577-1.686-8.122-.161-11.332,1.547-3.255,6.563-4.312,8.882-7.041s2.554-7.849,5.518-9.9c2.922-2.023,7.784-.447,11.209-1.667,3.311-1.179,6.067-5.5,9.736-5.8s7.085,3.524,10.543,4.155c3.578.652,8.122-1.686,11.332-.161,3.256,1.547,4.313,6.563,7.041,8.882s7.849,2.554,9.9,5.518c2.022,2.922.447,7.784,1.666,11.209C186.448,191.052,190.77,193.808,191.068,197.477Z" fill="#0f1011"></path>
    <path d="M132.057,240.62s7.736-4.093,6.028-25.151l15.979-2.948s-1.812,18.877,6.265,24.878Z" fill="#e69e87"></path>
    <g opacity="0.15">
      <path d="M157.059,233.449,143.8,223.284l10.424-.1A28.741,28.741,0,0,0,157.059,233.449Z"></path>
    </g>
    <path d="M129.028,207.3c1.1,6.39,4.581,12.442,10.214,14.511A40.5,40.5,0,0,0,158.6,224.44c17.491-1.419,14.067-41.19,5.771-48.922s-32.671-2.862-35.647,10.056C127.182,192.254,127.98,201.215,129.028,207.3Z" fill="#e69e87"></path>
    <g>
      <circle cx="154.052" cy="200.949" r="1.449" fill="#0f1011"></circle>
      <circle cx="165.484" cy="200.022" r="1.449" fill="#0f1011"></circle>
      <path d="M168,196.935h-.009l-3.838-.05a.681.681,0,0,1-.672-.69.691.691,0,0,1,.69-.672l3.838.051a.681.681,0,0,1-.009,1.361Z" fill="#0f1011"></path>
      <path d="M150.927,198.32a.681.681,0,0,1-.158-1.343l3.785-.907a.681.681,0,0,1,.318,1.324l-3.785.908A.734.734,0,0,1,150.927,198.32Z" fill="#0f1011"></path>
      <path d="M154.712,212.361s5.348.569,9.1-.738c0,0-.032,3.523-4.265,3.866S154.712,212.361,154.712,212.361Z" fill="#fff"></path>
    </g>
    <path d="M140.81,190.755a125.365,125.365,0,0,1-4.866,44.407s-12.193-21.025-14.079-38.531c-1.767-16.41,10.333-26.087,18.5-27.907,31.051-6.914,33.286,15.768,33.286,15.768C168,196.255,137.449,196.2,137.449,196.2" fill="#0f1011"></path>
    <path d="M146.73,207.187a6.143,6.143,0,0,1-12.245.993,6.041,6.041,0,0,1,5.626-6.619C144.489,201.422,146.456,203.806,146.73,207.187Z" fill="#e69e87"></path>
    <g opacity="0.15">
      <path d="M160.477,208.991a.5.5,0,0,1-.146-.978l2.948-.9-2.057-4.592a.5.5,0,1,1,.912-.409l2.289,5.109a.5.5,0,0,1-.31.682l-3.489,1.068A.468.468,0,0,1,160.477,208.991Z"></path>
    </g>
  </g>
  <g>
    <rect x="309.928" width="342.853" height="444.764" fill="#dee8f5"></rect>
    <rect x="403.842" y="44.815" width="211.6" height="16.362" fill="#fff"></rect>
    <rect x="403.842" y="112.234" width="211.6" height="16.362" fill="#fff"></rect>
    <rect x="403.842" y="179.652" width="211.6" height="16.362" fill="#fff"></rect>
    <rect x="403.842" y="247.071" width="211.6" height="16.362" fill="#fff"></rect>
    <rect x="403.842" y="314.489" width="211.6" height="16.362" fill="#fff"></rect>
    <rect x="403.842" y="381.907" width="211.6" height="16.362" fill="#fff"></rect>
    <g>
      <path d="M352.76,70.357a3.477,3.477,0,0,1-2.384-.947l-11.92-11.248a3.474,3.474,0,0,1,4.768-5.053l9.344,8.817,20.3-22.372a3.474,3.474,0,1,1,5.145,4.668L355.332,69.217a3.472,3.472,0,0,1-2.437,1.137C352.85,70.355,352.805,70.357,352.76,70.357Z" fill="#80888B"></path>
      <path d="M352.76,137.776a3.477,3.477,0,0,1-2.384-.947l-11.92-11.249a3.474,3.474,0,0,1,4.768-5.053l9.344,8.819,20.3-22.374a3.474,3.474,0,1,1,5.145,4.668l-22.683,25a3.472,3.472,0,0,1-2.438,1.137Q352.828,137.776,352.76,137.776Z" fill="#80888B"></path>
      <path d="M352.76,205.194a3.477,3.477,0,0,1-2.384-.947L338.456,193a3.474,3.474,0,0,1,4.768-5.053l9.344,8.818,20.3-22.372a3.473,3.473,0,1,1,5.145,4.667l-22.684,25a3.468,3.468,0,0,1-2.437,1.137Q352.828,205.194,352.76,205.194Z" fill="#80888B"></path>
      <path d="M352.76,272.612a3.477,3.477,0,0,1-2.384-.947l-11.92-11.247a3.474,3.474,0,0,1,4.768-5.053l9.344,8.817,20.3-22.372a3.473,3.473,0,1,1,5.145,4.667l-22.684,24.995a3.473,3.473,0,0,1-2.437,1.138Z" fill="#fff"></path>
    </g>
    <g>
      <path d="M352.76,339.14a3.477,3.477,0,0,1-2.384-.947l-11.92-11.247a3.474,3.474,0,0,1,4.768-5.054l9.344,8.818,20.3-22.373a3.474,3.474,0,1,1,5.145,4.668l-22.684,25a3.472,3.472,0,0,1-2.437,1.137Z" fill="#fff"></path>
      <path d="M352.76,406.559a3.477,3.477,0,0,1-2.384-.947l-11.92-11.248a3.474,3.474,0,0,1,4.768-5.053l9.344,8.818,20.3-22.374a3.474,3.474,0,1,1,5.145,4.668l-22.683,25a3.477,3.477,0,0,1-2.438,1.138Z" fill="#fff"></path>
    </g>
  </g>
  <path d="M879.19,652.165H0c9.634-24.567,27.424-45.408,52.5-51.591,36.686-9.032,75.511,15.805,112.116,6.465,20.8-5.3,37.17-20.744,54.374-33.569,64.906-48.395,153.847-62.693,230.659-37.084C489.8,549.768,526.379,573.17,567.5,583.123c53.179,12.87,108.792,2.2,163.479.437C784.24,581.847,860.553,603.548,879.19,652.165Z" fill="#f3f5fd"></path>
  <g>
    <path d="M263.744,285.787s5.881-6.979,12.136-8.085,4.694,2.493.977,5.178-12.1,8.091-12.1,8.091" fill="#e69e87"></path>
    <path d="M268.049,283.668s11.673-4.747,16.676-2.6c0,0,4.361,4.279.087,9.9-4.1,5.391-14.805,7.393-14.805,7.393Z" fill="#e69e87"></path>
  </g>
  <g>
    <path d="M200.576,641.346l-20.853-2.481c.939-7.892,2-17.373,2.072-18.928,0,.1,0,.182,0,.246h21C202.79,620.812,202.79,622.727,200.576,641.346Z" fill="#e69e87"></path>
    <path d="M116.9,643.855l-21-.068s.07-21.685.07-23.6h21C116.971,622.108,116.9,643.855,116.9,643.855Z" fill="#e69e87"></path>
    <path d="M171.329,634.714l36.994-.63c-1.537-38.963-1.8-83.528-2.213-123.855a233.672,233.672,0,0,0-2.26-29.872C197.9,437.634,194.016,395.152,186,352.678l-.267.079-.782-5.33-76.076-4.695-3.96,49.7s-9.91,171.947-14.429,241.085l36.869,3.115C134,568.851,144.28,470.081,150.6,398.87c7.26,34.67,12.195,70.568,18.513,104.941C170.38,546.837,171.446,591.816,171.329,634.714Z" fill="#FFC107"></path>
    <path d="M142.429,651.978a4.107,4.107,0,0,0,4.076-4.427h0a4.106,4.106,0,0,0-2.659-3.529L119.4,635.835a3.461,3.461,0,0,0-2.872.32,19.112,19.112,0,0,1-11.468,3.4,17.03,17.03,0,0,1-8.821-3.223,1.547,1.547,0,0,0-2.527,1.2v11.952a2.678,2.678,0,0,0,2.689,2.678Z" fill="#c1d8ed"></path>
    <path d="M226.162,651.978a4.108,4.108,0,0,0,4.077-4.427h0a4.109,4.109,0,0,0-2.659-3.529l-24.443-8.187a3.461,3.461,0,0,0-2.872.32,19.112,19.112,0,0,1-11.468,3.4,17.027,17.027,0,0,1-8.82-3.223,1.547,1.547,0,0,0-2.527,1.2v11.952a2.678,2.678,0,0,0,2.688,2.678Z" fill="#c1d8ed"></path>
  </g>
  <path d="M212.305,320.515a10.5,10.5,0,0,1-9.041-5.16l-36.159-61.194,18.08-10.684L217,297.311l50.27-17.195,6.8,19.869L215.7,319.948A10.472,10.472,0,0,1,212.305,320.515Z" fill="#D6D6D6"></path>
  <path d="M189.892,350.775c-4.189,9.63-86.519,13.63-87.619-3.31-.7-10.78,8.8-20.19,8.8-41.2s-19.33-47.84-3.58-63.59c4.571-4.57,12.461-7.52,22.08-7.53.721,5.61,34.781,5.63,35.04.13,1.3.02,2.31.04,2.94.07,33.181,1.43,18.6,39.19,18.281,66.93C185.442,334.735,194.213,340.855,189.892,350.775Z" fill="#D6D6D6"></path>
  <path d="M241.838,330.229a10,10,0,0,1-6.862-2.726L186.45,281.715a10,10,0,0,1,13.726-14.547l41.109,38.79,85.484-94.2A10,10,0,1,1,341.58,225.2L249.244,326.949a10,10,0,0,1-7.018,3.273C242.1,330.226,241.967,330.229,241.838,330.229Z" fill="#80888B"></path>
  <path d="M164.612,235.275c-.259,5.5-3.25,13.59-12.48,14.2-12.3.81-21.839-8.72-22.56-14.33h.031C141.713,235.145,157.552,235.165,164.612,235.275Z" fill="#e69e87"></path>
  <g>
    <path d="M192.577,312.267s-2.315-13.171,7.205-14.26c6.008-.687,21.109-9.037,23.974-2.058,2.486,6.055-11.936,13.263-17.1,14.595C202.034,311.738,192.577,312.267,192.577,312.267Z" fill="#e69e87"></path>
    <path d="M196.537,299.056s12.269-6.728,15.625-6.571c2.972.139-2.083,5.888-2.083,5.888Z" fill="#e69e87"></path>
  </g>
  <path d="M143.113,333.818a10.9,10.9,0,0,1-9.953-6.458l-30.551-68.4,19.908-8.893,26.618,59.6,51.245-15.728,6.4,20.843-60.465,18.559A10.888,10.888,0,0,1,143.113,333.818Z" fill="#D6D6D6"></path>
  <path d="M290.69,283.177a2.025,2.025,0,0,0-.174-2.524c-1.517-1.639-4.331-4.238-6.183-3.277-2.641,1.369-7.923,6.456-6.456,9.1s4.5,5.546,6.46,4.666C285.819,290.472,289,285.64,290.69,283.177Z" fill="#e69e87"></path>
  <g>
    <g>
      <rect x="707.225" y="638.744" width="12.175" height="13.421" fill="#c1d8ed"></rect>
      <rect x="823.06" y="638.744" width="12.175" height="13.421" fill="#c1d8ed"></rect>
    </g>
    <rect x="794.634" y="485.719" width="51.083" height="154.58" fill="#c1d8ed"></rect>
    <rect x="654.758" y="489.143" width="52.312" height="149.601" fill="#c1d8ed"></rect>
    <path d="M798.074,640.3H651.317V485.719H798.074ZM658.2,633.418H791.193V492.6H658.2Z" fill="#dee8f5"></path>
    <path d="M798.074,640.3H651.317V555.073H798.074ZM658.2,633.418H791.193V561.955H658.2Z" fill="#dee8f5"></path>
    <g>
      <polygon points="717.846 504.862 717.846 514.706 717.846 555.017 780.189 555.017 780.189 514.706 780.189 504.862 717.846 504.862" fill="#c1d8ed"></polygon>
      <rect x="697.413" y="514.706" width="62.343" height="40.312" fill="#dee8f5"></rect>
      <rect x="697.413" y="514.706" width="62.343" height="3.022" fill="#c1d8ed"></rect>
      <rect x="697.413" y="504.862" width="62.343" height="9.844" transform="translate(1457.168 1019.568) rotate(180)" fill="#dee8f5"></rect>
      <rect x="720.238" y="522.802" width="16.691" height="6.053" rx="1.436" fill="#fff"></rect>
    </g>
    <g>
      <rect x="660.691" y="638.744" width="12.175" height="13.421" fill="#dee8f5"></rect>
      <rect x="776.526" y="638.744" width="12.175" height="13.421" fill="#dee8f5"></rect>
    </g>
    <g>
      <rect x="707.074" y="618.071" width="67.777" height="15.347" fill="#c1d8ed"></rect>
      <rect x="708.238" y="587.411" width="67.777" height="15.347" fill="#c1d8ed"></rect>
      <g>
        <rect x="680.048" y="618.071" width="71.675" height="15.347" fill="#dee8f5"></rect>
        <g opacity="0.62">
          <rect x="742.393" y="618.071" width="3.479" height="15.347" fill="#c1d8ed"></rect>
        </g>
        <g opacity="0.62">
          <rect x="735.435" y="618.071" width="3.479" height="15.347" fill="#c1d8ed"></rect>
        </g>
        <circle cx="688.265" cy="625.744" r="4.949" fill="#f3f5fd"></circle>
      </g>
      <g>
        <rect x="681.213" y="587.411" width="71.675" height="15.347" fill="#dee8f5"></rect>
        <rect x="685.828" y="590.868" width="50.016" height="8.434" fill="#f3f5fd"></rect>
        <g opacity="0.62">
          <rect x="740.453" y="587.411" width="6.583" height="15.347" fill="#c1d8ed"></rect>
        </g>
      </g>
      <g>
        <rect x="712.602" y="602.741" width="67.777" height="15.347" transform="translate(1492.98 1220.829) rotate(-180)" fill="#c1d8ed"></rect>
        <g>
          <rect x="685.576" y="602.741" width="71.675" height="15.347" transform="translate(1442.827 1220.829) rotate(-180)" fill="#f3f5fd"></rect>
          <rect x="691.427" y="602.741" width="3.479" height="15.347" transform="translate(1386.333 1220.829) rotate(-180)" fill="#dee8f5"></rect>
          <rect x="698.385" y="602.741" width="3.479" height="15.347" transform="translate(1400.248 1220.829) rotate(-180)" fill="#dee8f5"></rect>
          <circle cx="749.033" cy="610.414" r="4.949" fill="#dee8f5"></circle>
        </g>
        <rect x="707.225" y="606.653" width="31.64" height="7.524" fill="#dee8f5"></rect>
      </g>
    </g>
  </g>
  <g>
    <path d="M784.365,428.738c-3.41-1.116-6.91.139-10.259,2.683,4.411-11.137,6.231-21.2-1.309-21.649-5.276-.317-9.317,3.731-12.388,9.485-1.079-10.118-3.866-17.664-10.106-15.162-6.851,2.747-7.893,12.16-6.855,22.008-3.02-5.03-6.268-7.835-9.218-4.886-8.807,8.806,12.81,33.625,12.81,33.625h5.368l3.064,3.326c-.622,1.311-.96,2.092-.96,2.092l3.891,7.919S798.52,433.37,784.365,428.738Z" fill="#8ddbe0"></path>
    <polygon points="774.743 485.915 744.36 485.915 739.274 450.447 779.829 450.447 774.743 485.915" fill="#c1d8ed"></polygon>
  </g>
</svg>