<svg id="Layer_1" data-name="Layer 1" xmlns="http://www.w3.org/2000/svg" viewBox="0 0 725.233 561.465">
  <g>
    <path d="M82.816,561.465c-26.747,0-50.781-20.63-50.789-47.378-.052-159.165,150.711-191.3,179.814-244.209,49.955-90.828,98.012-158.7,169.4-158.7,116.561,0,110.463,125.4,169.741,190.407,79.074,86.715,136.147,117.052,136.147,212.51,0,26.745-24.044,47.372-50.788,47.372Z" fill="#f3f5fd"></path>
    <g>
      <path d="M705.611,487.742a18.62,18.62,0,0,1-3.748,1.993c-10.991,4.124-41.557,3.667-46.028,14.52-2.1,5.1-2.606,10.734-4.407,15.955-4.088,11.841-14.877,20.719-26.946,24.056-4.343,1.2-8.842,1.756-13.139,3.091-8.3,2.588-15.178,7.79-21.222,14.108H491.034A39.019,39.019,0,0,1,508.919,528.4c11.017-6.949,24.934-8.248,35.75-15.508C551.8,508.1,556.93,501.183,561,493.53a141.431,141.431,0,0,0,6.849-15.444c3.026-7.854,6.19-16.284,13.066-21.148a33.554,33.554,0,0,1,11.036-4.627c9.93-2.6,17.564-1.07,24.8.412,8.778,1.792,16.971,3.5,27.97-2.341,19.512-10.369,48.04-62.075,76.549-12.947C732.694,457.139,716.922,480.171,705.611,487.742Z" fill="#8ddbe0"></path>
      <path d="M631.1,390.767c-5.852,17.729-26.05,33.483-20.015,46.522,2.295,4.955,4.6,10.14,5.659,15.434a26.915,26.915,0,0,1,.339,9.609c-2.176,13.807-15.1,22.978-27.11,30.119-.741.439-1.49.887-2.241,1.335-11.383,6.821-23.306,14.675-26.963,27.265-2.03,7-1.134,14.474-1.975,21.707a45.388,45.388,0,0,1-6.611,18.707H475.463c-6.812-7.507-6.245-20.124-1.061-28.975,5.55-9.473,14.922-15.91,23.38-22.914,7.306-6.053,14.428-13.34,17.217-22.227a26.972,26.972,0,0,0,.978-4.307c.677-4.809.311-29.378,8.65-44.5,12.892-23.352,33.8-17.6,40.194-30.776,2.451-5.048,4.563-67.067,45.3-55.611A30.292,30.292,0,0,1,631.1,390.767Z" fill="#dee8f5"></path>
    </g>
    <g>
      <path d="M19.621,487.742a18.652,18.652,0,0,0,3.749,1.993c10.99,4.124,41.557,3.667,46.028,14.52,2.1,5.1,2.606,10.734,4.407,15.955,4.087,11.841,14.876,20.719,26.946,24.056,4.343,1.2,8.841,1.756,13.139,3.091,8.3,2.588,15.178,7.79,21.221,14.108H234.2A39.022,39.022,0,0,0,216.314,528.4c-11.018-6.949-24.934-8.248-35.751-15.508-7.131-4.791-12.261-11.712-16.33-19.365a141.424,141.424,0,0,1-6.848-15.444c-3.026-7.854-6.19-16.284-13.066-21.148a33.554,33.554,0,0,0-11.036-4.627c-9.93-2.6-17.565-1.07-24.8.412-8.778,1.792-16.97,3.5-27.97-2.341C61,440.013,32.477,388.307,3.968,437.435-7.461,457.139,8.311,480.171,19.621,487.742Z" fill="#8ddbe0"></path>
      <path d="M94.131,390.767c5.851,17.729,26.05,33.483,20.015,46.522-2.3,4.955-4.6,10.14-5.66,15.434a26.938,26.938,0,0,0-.338,9.609c2.176,13.807,15.1,22.978,27.11,30.119.74.439,1.49.887,2.24,1.335,11.383,6.821,23.306,14.675,26.964,27.265,2.03,7,1.134,14.474,1.975,21.707a45.374,45.374,0,0,0,6.611,18.707H249.77c6.812-7.507,6.245-20.124,1.06-28.975-5.55-9.473-14.922-15.91-23.379-22.914-7.306-6.053-14.429-13.34-17.217-22.227a26.972,26.972,0,0,1-.978-4.307c-.677-4.809-.312-29.378-8.65-44.5-12.892-23.352-33.8-17.6-40.194-30.776-2.451-5.048-4.563-67.067-45.3-55.611A30.292,30.292,0,0,0,94.131,390.767Z" fill="#dee8f5"></path>
    </g>
    <g>
      <g>
        <path d="M381.217,386.471c-.63,0-2.545,0-21.163-2.215l2.48-20.853c7.893.939,17.373,2,18.928,2.072-.1,0-.18-.007-.245,0Z" fill="#EDA59F"></path>
        <path d="M337.617,553.156l-21-.068s.07-21.685.07-23.605h21C337.687,531.409,337.617,553.156,337.617,553.156Z" fill="#EDA59F"></path>
        <path d="M464.493,351.228c-24.487-27.041-82-99.2-82-99.2H309.5c-2.28,71.527.195,213.424,1.638,292.464l37-.222c1.146-79.472,5.162-159.492,7.977-239.281,0,0,37.312,31.5,53.836,45.286l-45.024,4.849,4.144,36.767,84.33-9.278C468.238,381.421,475.45,361.614,464.493,351.228Z" fill="#FFC107"></path>
        <path d="M291.121,561.278a4.107,4.107,0,0,1-4.076-4.427h0a4.108,4.108,0,0,1,2.658-3.529l24.443-8.187a3.461,3.461,0,0,1,2.872.32,19.112,19.112,0,0,0,11.468,3.4,17.031,17.031,0,0,0,8.82-3.222,1.547,1.547,0,0,1,2.528,1.2v11.952a2.678,2.678,0,0,1-2.689,2.678Z" fill="#c1d8ed"></path>
        <path d="M349.421,409.843a4.108,4.108,0,0,0,4.427,4.076h0a4.107,4.107,0,0,0,3.53-2.659l8.186-24.442a3.463,3.463,0,0,0-.319-2.873,19.1,19.1,0,0,1-3.4-11.467,17.035,17.035,0,0,1,3.222-8.821,1.546,1.546,0,0,0-1.2-2.527H351.913a2.677,2.677,0,0,0-2.678,2.689Z" fill="#c1d8ed"></path>
      </g>
      <g>
        <path d="M350.615,19.3c-.751-.66-2.962,1.477-4.481,3.132-.439-4.91,3.1-14.481,5.271-19.794a1.888,1.888,0,0,0-2.551-2.42C335.362,6.573,334.13,28.283,334.13,28.283l8.845,8.56S352.59,21.037,350.615,19.3Z" fill="#EDA59F"></path>
        <path d="M350.615,19.3c-.751-.66-2.962,1.477-4.481,3.132-.439-4.91,3.1-14.481,5.271-19.794a1.888,1.888,0,0,0-2.551-2.42C335.362,6.573,334.13,28.283,334.13,28.283l8.845,8.56S352.59,21.037,350.615,19.3Z" opacity="0.15"></path>
        <path d="M346.135,19.267c.751-.659,2.96,1.478,4.479,3.133.44-4.909-3.1-14.481-5.264-19.795A1.888,1.888,0,0,1,347.9.186c13.489,6.356,14.714,28.067,14.714,28.067l-8.847,8.556S344.159,21,346.135,19.267Z" fill="#EDA59F"></path>
        <path d="M388.368,163.206,368.3,154.691,394.84,92.12,346.828,34.056l17.818-12.568,51.508,63.021a10.9,10.9,0,0,1,1.127,10.542Z" fill="#D6D6D6"></path>
        <path d="M391.739,260.075c-4.189,9.63-86.52,13.63-87.62-3.31-.7-10.78,8.8-20.19,8.8-41.2s-19.33-47.84-3.58-63.59c4.57-4.57,12.461-7.52,22.08-7.53.72,5.61,34.78,5.63,35.04.13,1.3.02,2.31.04,2.94.07,33.18,1.43,18.6,39.19,18.28,66.93C387.289,244.035,396.059,250.155,391.739,260.075Z" fill="#D6D6D6"></path>
        <path d="M366.459,144.575c-.26,5.5-3.25,13.59-12.48,14.2-12.3.81-21.84-8.72-22.56-14.33h.03C343.559,144.445,359.4,144.465,366.459,144.575Z" fill="#EDA59F"></path>
        <path d="M304.557,168.482l-34.6-73.021a10.9,10.9,0,0,1,1.5-11.671l61.2-63.021,16.711,14.006L292.654,92.44l31.608,66.705Z" fill="#D6D6D6"></path>
      </g>
      <g>
        <path d="M337.152,146.129c1.98-3.359,4.081-9.849,3.09-21.87l15.98-2.96s-1.78,18.8,6.24,24.83Z" fill="#EDA59F"></path>
        <path d="M359.237,142.225l-13.272-10.154,10.424-.108A28.756,28.756,0,0,0,359.237,142.225Z" opacity="0.15"></path>
        <path d="M331.182,116.1c1.106,6.389,4.592,12.438,10.228,14.5a40.51,40.51,0,0,0,19.357,2.615c17.49-1.434,14.03-41.2,5.727-48.926s-32.673-2.833-35.638,10.087C329.323,101.057,330.13,110.016,331.182,116.1Z" fill="#EDA59F"></path>
        <path d="M376.961,98.837s-3.427-28.264-34.472-21.322a24.557,24.557,0,0,0-12.764,8.25,14.014,14.014,0,1,0-5.817,18.45c.028.4.058.81.1,1.223,1.9,17.5,16.464,26.263,16.464,26.263s3.91-2.961,2.519-31.235C349.733,101.041,365.158,101.871,376.961,98.837Z" fill="#0f1011"></path>
        <g>
          <circle cx="356.201" cy="109.727" r="1.449" fill="#0f1011"></circle>
          <circle cx="367.632" cy="108.79" r="1.449" fill="#0f1011"></circle>
          <path d="M370.143,105.7h-.009l-3.838-.048a.681.681,0,0,1,.009-1.362h.009l3.837.049a.681.681,0,0,1-.008,1.361Z" fill="#0f1011"></path>
          <path d="M353.073,107.1a.681.681,0,0,1-.158-1.343l3.784-.911a.681.681,0,1,1,.319,1.324l-3.785.911A.673.673,0,0,1,353.073,107.1Z" fill="#0f1011"></path>
          <path d="M356.871,121.139s5.349.564,9.1-.746c0,0-.03,3.523-4.262,3.87S356.871,121.139,356.871,121.139Z" fill="#f8fcff"></path>
        </g>
        <path d="M348.663,113.273a6.143,6.143,0,1,1-12.244,1,6.041,6.041,0,0,1,5.62-6.624C346.417,107.51,348.386,109.892,348.663,113.273Z" fill="#EDA59F"></path>
        <g opacity="0.15">
          <path d="M362.633,117.764a.5.5,0,0,1-.147-.978l2.947-.905-2.061-4.59a.5.5,0,0,1,.912-.41l2.293,5.106a.5.5,0,0,1-.309.684l-3.488,1.071A.509.509,0,0,1,362.633,117.764Z"></path>
        </g>
      </g>
    </g>
  </g>
</svg>