<svg id="Layer_1" data-name="Layer 1" xmlns="http://www.w3.org/2000/svg" viewBox="0 0 1030.096 789.506">
  <polyline points="548.363 97.863 19.545 784.183 787.038 784.183 905.448 212.287" fill="#f3f5fd"></polyline>
  <path d="M1030.1,373.04H756.285c1.55-10.4,7.239-20.044,15.933-24.75,10.753-5.824,23.821-4.105,35.954-2.6s25.522,2.344,35.48-4.742c5.01-3.567,8.554-8.765,12.612-13.39,11.594-13.232,29.878-22.283,46.84-17.611,8.537,2.35,15.822,7.846,23.915,11.436a56.852,56.852,0,0,0,27.072,4.7c9.56-.708,19.073-3.836,28.556-2.433,12.022,1.789,21.868,10.613,29,20.459C1018.4,353.429,1023.22,362.475,1030.1,373.04Z" fill="#dee8f5"></path>
  <path d="M360.786,374.752H9.2A25.124,25.124,0,0,1,8,354.423a24.91,24.91,0,0,1,17.162-14.971c11.478-2.724,24.452,2.864,34.915-2.576,8.119-4.226,11.87-13.764,13.6-22.743s2.216-18.466,6.577-26.508c7.329-13.5,24.728-19.532,39.752-16.314s27.5,14.163,35.717,27.143c3.379,5.338,6.449,11.369,12.018,14.349,6.429,3.436,14.432,1.8,21.035-1.278s12.6-7.5,19.512-9.788c13.957-4.619,30.644,1.021,38.942,13.16,5.935,8.677,8.421,20.624,17.74,25.486,3.841,2,8.292,2.421,12.615,2.524,17.252.418,34.985-3.6,51.492,1.42A49.947,49.947,0,0,1,360.786,374.752Z" fill="#dee8f5"></path>
  <g>
    <ellipse cx="704.86" cy="173.653" rx="56.699" ry="81.247" transform="translate(331.769 796.378) rotate(-72.913)" fill="#d7e8f4"></ellipse>
    <path d="M931.827,218.431c-3.456,11.242-26.868,15.289-62.749,12.874-43.244-2.9-104.607-15.2-171-35.609S574.026,151,536.61,129.114c-31.045-18.164-48.137-34.661-44.681-45.9,4.065-13.223,35.759-16.492,82.894-10.99,41.2,4.809,94.2,16.315,150.845,33.729s106.965,37.665,143.75,56.827C911.506,184.7,935.891,205.208,931.827,218.431Z" fill="#c1d8ed"></path>
    <path d="M867.485,196.228c-40.3-2.706-97.492-14.168-159.366-33.187S592.5,121.384,557.632,100.988a164.623,164.623,0,0,1,35.613-53.022c41.439-41.335,103.393-59.059,162.789-40.8s100.7,67.722,111.767,125.2A164.723,164.723,0,0,1,867.485,196.228Z" fill="#d7e8f4"></path>
  </g>
  <g>
    <path d="M555.285,249.6l5.556-7.256s-5.369-10.532-17.051-10.52c-3.871,0-3.936,4.38-2.789,5.073,3.79,2.289,7.724,4.114,9.715,7.356-1.7-.324-4.056-.629-4.217.125C546.075,246.364,555.285,249.6,555.285,249.6Z" fill="#EDA59F"></path>
    <path d="M575.627,316.355l-14.437-8.641,18.48-30.875-29.787-27.223,11.35-12.42,34.859,31.859a8.411,8.411,0,0,1,1.543,10.53Z" fill="#D6D6D6"></path>
    <path d="M523.882,522.2l-2.035-16.076c6.083-.771,13.379-1.747,14.558-1.983l-.185.043,3.923,15.723C539.672,520.02,538.237,520.378,523.882,522.2Z" fill="#EDA59F"></path>
    <path d="M521.946,543.283a3.17,3.17,0,0,0,3.978,2.395h0a3.172,3.172,0,0,0,2.256-2.557l2.4-19.746a2.673,2.673,0,0,0-.687-2.122,14.747,14.747,0,0,1-4.349-8.141,13.129,13.129,0,0,1,1.068-7.167,1.194,1.194,0,0,0-1.3-1.725l-9.035,1.854a2.066,2.066,0,0,0-1.607,2.448Z" fill="#c1d8ed"></path>
    <path d="M679.5,569.5c-.222-6.129-.541-13.485-.669-14.678l.025.186,16.012-2.494c.075.48.3,1.941.826,16.4Z" fill="#EDA59F"></path>
    <path d="M716.526,572.732a3.17,3.17,0,0,0,2.742-3.747h0a3.171,3.171,0,0,0-2.345-2.476l-19.451-4.159a2.671,2.671,0,0,0-2.175.494,14.748,14.748,0,0,1-8.5,3.6,13.142,13.142,0,0,1-7.043-1.706,1.194,1.194,0,0,0-1.834,1.14l1.036,9.165a2.067,2.067,0,0,0,2.294,1.82Z" fill="#c1d8ed"></path>
    <path d="M682.231,460.8c-8.265-15.523-57.29-80.718-62.549-87.762L568.11,400.5s14.853,76.266,15.043,78.5L530.8,499.5l6.821,27.725,67.661-19.234a16.232,16.232,0,0,0,12.943-16.3s-7.935-68.022-8.047-69.292l42.232,46.523,21.212,92.29,28.262-4.053S685.573,467.079,682.231,460.8Z" fill="#FFC107"></path>
    <path d="M460.623,284.771l-6.809,6.1s-11.051-6.266-11.935-17.914c-.293-3.86,4.066-4.26,4.845-3.17,2.573,3.6,4.832,9.106,8.218,10.842-.454-1.673-.938-4-.2-4.214C456.689,275.837,460.623,284.771,460.623,284.771Z" fill="#EDA59F"></path>
    <path d="M564.44,406.353c-5.25-6.471-3.46-16.641-12.83-29.861s-33.51-21.51-30.62-38.45c.84-4.91,4.5-10.3,10.55-14.59,2.95,3.211,24.42-11.96,22.13-15.539.83-.57,1.47-1.011,1.88-1.27,21.53-13.9,29.19,16.379,41.36,33.989,14.23,20.62,22.48,20.56,24.19,28.741C622.75,377.3,572.69,416.532,564.44,406.353Z" fill="#D6D6D6"></path>
    <path d="M552.14,322.413c-7.39,6-17.65,4.25-20.6,1.039.01-.01.01-.019.02-.019,7.63-5.391,17.61-12.441,22.11-15.52C555.96,311.492,557.68,317.913,552.14,322.413Z" fill="#EDA59F"></path>
    <path d="M528.365,347.158l-46.152-12.4a8.409,8.409,0,0,1-4.706-3.3l-29.6-42.22,13.777-9.659L489.53,319.3l43.2,11.608Z" fill="#D6D6D6"></path>
    <g>
      <path d="M534.348,323.855s3.619-5.673-5.517-19.1l9.564-8.038s5.955,13.309,13.634,14.255Z" fill="#EDA59F"></path>
      <g opacity="0.15">
        <path d="M548.343,309.569l-12.727-1.762,6.932-4.023A22.089,22.089,0,0,0,548.343,309.569Z"></path>
      </g>
      <path d="M519.672,302.725c3.161,3.854,7.787,6.579,12.338,5.824a31.148,31.148,0,0,0,13.941-5.588c11.156-7.588-6.232-32.88-14.714-34.9s-22.93,10.489-20.016,20.255C512.728,293.368,516.663,299.056,519.672,302.725Z" fill="#EDA59F"></path>
      <path d="M543.754,273.827s-13.006-17.609-31.142-1.2a18.883,18.883,0,0,0-5.412,10.356,10.775,10.775,0,1,0,3.1,14.547c.172.26.346.52.533.78C518.741,309.3,531.8,309.64,531.8,309.64s1.493-3.463-10.154-21.849C526.375,285.621,537.008,280.33,543.754,273.827Z" fill="#0f1011"></path>
      <g>
        <circle cx="533.994" cy="288.981" r="1.114" fill="#0f1011"></circle>
        <circle cx="541.285" cy="284.021" r="1.114" fill="#0f1011"></circle>
        <path d="M538.951,282.5a.524.524,0,0,1-.253-.983l2.586-1.423a.524.524,0,0,1,.5.918L539.2,282.43A.523.523,0,0,1,538.951,282.5Z" fill="#0f1011"></path>
        <path d="M530.649,288.477a.524.524,0,0,1-.358-.906l2.187-2.043a.524.524,0,0,1,.715.765l-2.187,2.043A.523.523,0,0,1,530.649,288.477Z" fill="#0f1011"></path>
        <path d="M538.768,296.36a19.427,19.427,0,0,0,5.8-3.947s1.315,2.368-1.385,4.2S538.768,296.36,538.768,296.36Z" fill="#fff"></path>
      </g>
      <path d="M530.295,294.209a4.723,4.723,0,1,1-7.81,5.313,4.645,4.645,0,0,1,1.249-6.561C526.608,291.206,528.828,292.053,530.295,294.209Z" fill="#EDA59F"></path>
      <g opacity="0.15">
        <path d="M541.343,291.919a.385.385,0,0,1-.47-.6L542.5,289.6l-3.119-2.289a.385.385,0,0,1,.455-.621l3.47,2.547a.386.386,0,0,1,.052.575l-1.927,2.038A.426.426,0,0,1,541.343,291.919Z"></path>
      </g>
    </g>
  </g>
  <g>
    <path d="M111.2,590.785c-.313.63-.635,1.257-.955,1.884q-1.3,2.558-2.692,5.092c-.3.548-.591,1.1-.9,1.644q-1.824,3.263-3.78,6.488c-.147.243-.3.484-.45.726-1.369,2.231-2.778,4.451-4.246,6.655L49.451,687H91.976l48.73-73.73c1.468-2.2,2.875-4.422,4.243-6.651.151-.245.306-.488.455-.732.095-.157.2-.313.29-.47,1.207-1.994,2.363-4,3.489-6.017.305-.545.6-1.093.9-1.639q1.387-2.539,2.7-5.1c.318-.625.639-1.25.95-1.877,1.094-2.2,2.159-4.413,3.161-6.641H114.36C113.358,586.374,112.3,588.583,111.2,590.785Z" fill="#9ebcea"></path>
    <polygon points="210.9 519.703 168.374 519.703 168.374 687.004 200.366 687.004 200.366 730.707 168.374 730.707 168.374 785.865 210.9 785.865 210.9 730.707 242.891 730.707 242.891 687.004 210.9 687.004 210.9 519.703" fill="#9ebcea"></polygon>
    <path d="M324.645,744.038c.341.028.686.048,1.033.065.236.012.465.037.7.045.381.012.766.018,1.153.018H370.06c-.63,0-1.242-.031-1.855-.063-.348-.017-.694-.037-1.036-.065-.434-.036-.862-.084-1.287-.135-.33-.041-.661-.08-.986-.13-.468-.072-.928-.159-1.384-.252-.241-.049-.486-.091-.724-.146-.592-.136-1.174-.292-1.746-.463-.1-.029-.2-.051-.3-.081q-1.02-.317-2-.711c-.188-.075-.368-.165-.554-.245-.45-.193-.9-.389-1.333-.606-.724-.36-1.433-.747-2.12-1.175-.064-.039-.124-.087-.187-.127q-.931-.591-1.818-1.265c-.32-.243-.63-.5-.941-.764-.239-.2-.483-.391-.717-.6-.327-.292-.642-.607-.959-.919-.212-.208-.429-.4-.637-.622-.346-.362-.678-.749-1.012-1.134-.165-.19-.336-.369-.5-.565q-.733-.889-1.426-1.857h0q-.69-.967-1.337-2.017c-.144-.233-.279-.485-.419-.724-.282-.477-.564-.952-.833-1.452-.16-.3-.31-.614-.466-.921-.236-.465-.474-.928-.7-1.412-.16-.342-.31-.7-.465-1.053-.246-.561-.5-1.115-.728-1.7-.314-.787-.616-1.613-.912-2.456-.069-.2-.137-.391-.2-.589-.288-.846-.569-1.712-.841-2.613-.032-.109-.064-.224-.1-.334q-.369-1.245-.716-2.563c-.056-.213-.113-.423-.169-.639q-.372-1.446-.72-2.973c-.043-.187-.083-.381-.125-.571q-.306-1.377-.591-2.82c-.041-.207-.083-.41-.124-.619-.134-.7-.259-1.425-.387-2.145-.1-.579-.209-1.146-.308-1.74-.12-.724-.23-1.478-.343-2.223-.092-.6-.187-1.188-.274-1.8-.112-.787-.213-1.606-.317-2.415-.079-.608-.161-1.2-.235-1.82-.1-.858-.2-1.749-.29-2.632-.066-.609-.137-1.2-.2-1.821-.1-.977-.184-1.99-.273-3-.049-.557-.1-1.1-.15-1.662-.1-1.184-.183-2.406-.268-3.63-.029-.422-.063-.826-.091-1.252q-.164-2.493-.3-5.091c-.017-.346-.029-.709-.046-1.057-.066-1.4-.131-2.809-.183-4.256-.006-.161-.01-.33-.016-.492q-.078-2.234-.134-4.541c-.013-.529-.024-1.065-.035-1.6q-.041-1.881-.065-3.809c-.008-.535-.015-1.066-.021-1.606-.018-1.78-.03-3.579-.03-5.418,0-1.914.012-3.79.032-5.64.006-.6.017-1.188.026-1.784.018-1.238.037-2.471.064-3.68.015-.686.034-1.359.052-2.035.028-1.1.06-2.193.1-3.269q.036-1.028.076-2.039.062-1.572.135-3.106c.031-.654.061-1.309.095-1.953.057-1.052.118-2.085.182-3.111.036-.574.069-1.155.108-1.72.083-1.233.174-2.439.27-3.633.026-.328.049-.667.075-.992q.19-2.276.41-4.456c.021-.2.043-.394.064-.594q.183-1.777.387-3.489c.04-.329.079-.659.119-.984.159-1.286.324-2.552.5-3.782.021-.143.043-.281.063-.423.162-1.106.331-2.185.506-3.245.05-.3.1-.6.151-.9.2-1.162.4-2.3.62-3.41.017-.085.034-.166.051-.251.2-1.031.417-2.032.636-3.013.061-.271.121-.54.183-.807.165-.72.339-1.416.514-2.11.106-.422.21-.85.319-1.262.185-.7.378-1.368.572-2.036.1-.336.191-.684.291-1.013q.415-1.368.857-2.65c.023-.066.044-.137.066-.2q.5-1.439,1.033-2.771c.318-.8.653-1.565.994-2.318.1-.216.2-.427.3-.639q.405-.859.832-1.68c.094-.18.185-.363.28-.54q.555-1.032,1.142-2c.1-.161.2-.312.3-.47.315-.5.635-.992.965-1.466.151-.216.306-.425.46-.635.294-.4.594-.8.9-1.181.166-.207.332-.412.5-.613.324-.386.655-.757.991-1.12.152-.165.3-.335.457-.5a27.869,27.869,0,0,1,3.1-2.768c.173-.131.35-.252.524-.379.38-.275.764-.543,1.156-.8.2-.133.413-.261.623-.388q.574-.35,1.167-.665c.207-.111.414-.224.624-.33.458-.229.925-.442,1.4-.644.15-.064.3-.136.447-.2q.939-.381,1.914-.69c.157-.05.32-.09.479-.137.5-.149,1.006-.288,1.521-.41.236-.055.477-.1.716-.153q.685-.144,1.387-.257c.254-.04.508-.079.765-.113.491-.065.99-.117,1.493-.159.231-.02.459-.045.693-.06.735-.047,1.48-.077,2.241-.077H327.534c-.76,0-1.5.03-2.24.077-.234.015-.462.04-.693.06-.5.042-1,.094-1.494.159-.256.034-.511.073-.764.113q-.7.113-1.388.257c-.239.05-.478.1-.714.153-.515.122-1.021.261-1.521.41-.159.047-.323.087-.481.137q-.975.309-1.912.69c-.153.062-.3.134-.451.2-.471.2-.937.413-1.394.642-.211.1-.417.219-.625.33q-.591.318-1.168.666c-.208.126-.416.254-.621.386-.391.253-.776.521-1.155.8-.175.127-.353.248-.525.38-.539.412-1.069.841-1.583,1.3l-.008.006c-.517.461-1.017.952-1.509,1.46-.157.161-.307.333-.461.5-.334.361-.664.731-.986,1.115-.17.2-.337.409-.5.618q-.456.572-.9,1.175c-.154.212-.31.422-.461.639-.329.472-.649.962-.963,1.461-.1.16-.2.312-.3.475-.023.037-.047.071-.07.108-.368.609-.724,1.244-1.073,1.892-.094.177-.186.361-.279.541q-.426.819-.831,1.679c-.1.212-.2.423-.3.639-.342.753-.676,1.52-.994,2.318-.035.086-.069.172-.1.258q-.478,1.213-.93,2.515c-.019.055-.037.115-.055.169q-.449,1.3-.868,2.683c-.1.327-.193.673-.29,1.008-.194.67-.388,1.343-.574,2.042-.108.409-.211.834-.316,1.252-.116.461-.238.907-.35,1.38-.057.243-.111.5-.168.744q-.091.394-.18.795c-.22.989-.435,2-.64,3.034-.015.079-.032.154-.047.232-.218,1.109-.423,2.255-.622,3.42-.051.294-.1.59-.148.887-.176,1.063-.346,2.145-.508,3.254-.02.142-.043.279-.063.422-.176,1.233-.342,2.5-.5,3.788-.04.321-.078.646-.116.97q-.206,1.711-.388,3.485c-.022.2-.044.4-.065.612-.008.076-.016.149-.025.226q-.205,2.067-.385,4.224c-.027.325-.05.664-.075.992-.1,1.194-.188,2.4-.27,3.633-.039.563-.072,1.142-.108,1.714-.063,1.031-.126,2.069-.182,3.126-.034.637-.064,1.284-.094,1.931q-.073,1.543-.137,3.122-.039,1.011-.075,2.036c-.037,1.076-.068,2.168-.1,3.269-.017.676-.037,1.349-.051,2.035-.027,1.209-.046,2.442-.064,3.68-.008.6-.02,1.181-.027,1.784-.019,1.85-.031,3.726-.031,5.64,0,1.839.012,3.638.03,5.418.006.54.013,1.071.021,1.606q.025,1.927.065,3.809c.011.534.022,1.07.034,1.6q.057,2.3.135,4.541c.006.163.01.331.016.492l0,.112c.052,1.412.116,2.785.181,4.154.016.345.028.7.045,1.047q.131,2.6.294,5.091c.029.447.065.871.1,1.313.084,1.2.167,2.4.262,3.564.05.607.109,1.185.161,1.782.086.964.169,1.937.262,2.875.065.647.139,1.264.207,1.9.093.856.182,1.723.282,2.556.077.638.162,1.247.241,1.87.1.793.2,1.6.311,2.365.088.623.185,1.218.278,1.826.112.739.222,1.487.34,2.2.1.6.206,1.167.309,1.749s.206,1.207.316,1.786c.022.119.047.232.07.35.04.21.083.414.124.623q.285,1.44.59,2.814c.042.191.083.386.126.575.232,1.02.472,2.009.721,2.974.054.215.111.424.168.636q.346,1.316.716,2.563c.032.111.063.226.1.335.27.9.552,1.768.841,2.614.067.2.135.392.2.587.3.844.6,1.67.912,2.457.074.186.15.372.225.556.162.394.338.764.506,1.147.154.35.3.708.462,1.048.227.487.466.951.7,1.418.156.3.305.619.464.915.27.5.555.984.839,1.465.139.235.271.482.412.711q.642,1.035,1.322,2l.02.029q.69.965,1.421,1.85c.164.2.337.379.5.572.332.383.663.768,1.008,1.128.206.216.422.413.633.62.318.313.635.628.963.922.233.209.476.4.715.6.257.215.508.443.772.647.054.042.114.076.169.118q.888.675,1.82,1.266c.063.04.122.087.186.126.687.427,1.4.815,2.12,1.175.049.025.1.056.144.08.388.19.789.354,1.187.525.186.08.368.17.557.246q.963.387,1.964.7l.033.009c.1.03.2.052.3.081.573.171,1.155.328,1.747.463.237.055.481.1.721.146.331.067.658.144,1,.2.128.022.262.032.391.052.324.05.656.089.987.13C323.783,743.954,324.211,744,324.645,744.038Z" fill="#9ebcea"></path>
    <path d="M462.294,678.291c.114-1.619.2-3.28.291-4.934.06-1.093.133-2.166.182-3.274.084-1.866.138-3.78.194-5.691.027-.941.069-1.859.09-2.811q.094-4.329.1-8.8c0-2.566-.032-5.088-.083-7.584-.017-.779-.042-1.544-.063-2.316-.03-1.085-.05-2.184-.089-3.256-.027-.743-.067-1.469-.1-2.2-.024-.564-.048-1.128-.076-1.688-.112-2.315-.244-4.6-.4-6.854-.021-.3-.048-.582-.069-.876q-.224-3.015-.508-5.948c-.051-.527-.1-1.055-.154-1.578-.22-2.161-.459-4.3-.727-6.392-.038-.306-.083-.605-.123-.91q-.366-2.782-.789-5.483c-.076-.486-.151-.974-.229-1.457-.306-1.879-.625-3.739-.972-5.562-.025-.13-.053-.257-.078-.387-.055-.284-.115-.56-.17-.842q-.518-2.626-1.093-5.171c-.088-.385-.172-.774-.261-1.156q-.645-2.778-1.361-5.458c-.1-.365-.2-.723-.3-1.085q-.663-2.419-1.384-4.763c-.079-.257-.155-.521-.235-.777q-.808-2.572-1.691-5.042c-.133-.376-.269-.748-.4-1.12-.59-1.619-1.2-3.216-1.833-4.772-.02-.051-.04-.1-.061-.155-.006-.016-.012-.032-.019-.048-.421-1.026-.875-2.006-1.316-3-.324-.731-.631-1.484-.964-2.2-.5-1.065-1.028-2.085-1.549-3.117-.313-.622-.609-1.266-.931-1.875-.6-1.135-1.234-2.222-1.863-3.315-.271-.47-.525-.963-.8-1.426q-1.378-2.307-2.848-4.489c-.873-1.3-1.778-2.544-2.7-3.768q-.317-.421-.635-.838c-.916-1.19-1.849-2.352-2.81-3.471-.125-.145-.254-.283-.379-.427q-1.322-1.518-2.7-2.945c-.218-.226-.434-.456-.655-.68q-1.517-1.537-3.1-2.972c-.2-.185-.413-.362-.619-.544q-1.428-1.265-2.91-2.448c-.2-.158-.392-.322-.592-.478-.1-.081-.2-.169-.309-.25-1.055-.814-2.132-1.591-3.227-2.343-.27-.186-.549-.358-.821-.54q-1.423-.951-2.89-1.836-.6-.359-1.2-.705-1.419-.817-2.879-1.569c-.347-.18-.689-.367-1.04-.541-.141-.07-.277-.149-.419-.218-1.1-.54-2.232-1.044-3.369-1.531-.256-.11-.514-.216-.771-.323-1.336-.555-2.689-1.083-4.07-1.567-.136-.047-.276-.09-.412-.137-.723-.248-1.447-.5-2.183-.725-.639-.2-1.29-.383-1.938-.568-.177-.05-.352-.105-.529-.154-1.428-.4-2.883-.753-4.357-1.079-.271-.06-.542-.121-.814-.178-1.252-.266-2.514-.515-3.8-.73-.206-.034-.416-.06-.623-.093-.309-.05-.622-.092-.933-.139q-2.106-.317-4.265-.548c-.206-.022-.409-.05-.616-.07-1.578-.157-3.184-.272-4.807-.359-.368-.02-.738-.036-1.108-.053-.451-.019-.9-.049-1.35-.064q-1.839-.057-3.714-.058H327.534c1.715,0,3.4.05,5.065.122.37.017.74.033,1.108.053,1.623.087,3.229.2,4.807.359.207.02.41.048.616.07q2.162.228,4.265.548c.311.047.624.089.933.139q2.244.36,4.422.823c.272.057.542.118.812.178,1.475.326,2.931.682,4.36,1.079.175.049.347.1.521.153q2.1.6,4.128,1.295c.136.047.275.089.411.136,1.381.484,2.734,1.012,4.07,1.567.257.107.514.213.77.323q1.926.825,3.789,1.749c.351.174.692.362,1.04.541q1.459.754,2.88,1.569c.4.232.8.465,1.2.7q1.471.885,2.9,1.84c.27.181.548.352.815.536q1.806,1.242,3.539,2.6c.2.154.39.316.587.473q1.482,1.183,2.911,2.45c.207.183.416.36.621.546q1.582,1.433,3.1,2.971c.22.223.436.453.654.679q1.379,1.431,2.7,2.946c.125.144.255.282.379.427.96,1.119,1.893,2.281,2.809,3.47.214.277.426.558.636.84.92,1.224,1.824,2.471,2.7,3.767q1.469,2.181,2.847,4.489c.3.5.579,1.039.873,1.552.6,1.052,1.214,2.1,1.79,3.186.365.692.7,1.422,1.058,2.128.476.951.965,1.886,1.422,2.864.363.779.7,1.6,1.049,2.393.419.951.851,1.884,1.251,2.859.023.056.044.115.067.171.634,1.55,1.238,3.141,1.826,4.754.137.375.274.75.408,1.128.586,1.649,1.151,3.323,1.689,5.036.081.259.157.526.238.786q.72,2.337,1.38,4.753c.1.365.2.725.3,1.092q.715,2.679,1.361,5.454c.089.384.174.774.261,1.16q.575,2.544,1.093,5.165c.055.283.115.561.17.845.375,1.948.722,3.935,1.05,5.948.078.484.153.974.229,1.462q.42,2.7.787,5.467c.041.31.087.614.126.926q.4,3.14.726,6.382c.054.528.1,1.06.154,1.592q.281,2.925.506,5.926c.023.3.05.594.071.895.16,2.246.291,4.532.4,6.843.028.565.052,1.134.076,1.7.078,1.793.137,3.613.187,5.446.021.774.047,1.542.064,2.323.051,2.5.084,5.017.084,7.583q0,4.479-.1,8.8c-.021.952-.063,1.87-.09,2.811-.057,1.911-.11,3.825-.194,5.691-.05,1.109-.122,2.181-.182,3.274-.09,1.654-.177,3.315-.291,4.934-.08,1.143-.181,2.253-.272,3.378-.124,1.519-.244,3.042-.388,4.528-.11,1.137-.239,2.245-.362,3.363-.156,1.429-.312,2.86-.488,4.257-.14,1.118-.3,2.209-.452,3.307-.189,1.348-.379,2.7-.586,4.014-.171,1.087-.358,2.151-.542,3.217-.221,1.28-.445,2.556-.686,3.807-.2,1.049-.415,2.079-.629,3.107-.255,1.219-.515,2.431-.788,3.621q-.4,1.745-.827,3.448c-.185.735-.367,1.472-.559,2.2-.345,1.3-.709,2.575-1.078,3.838-.174.594-.34,1.2-.519,1.788-.558,1.825-1.136,3.618-1.747,5.362-.017.048-.035.093-.052.141q-.9,2.545-1.865,4.97c-.191.476-.392.936-.586,1.405-.475,1.151-.96,2.287-1.461,3.4-.248.549-.5,1.089-.756,1.628q-.727,1.545-1.491,3.034c-.258.5-.514,1.011-.778,1.5-.6,1.124-1.216,2.218-1.846,3.294-.182.31-.355.633-.54.94q-1.29,2.146-2.66,4.167-22.819,33.5-70.277,33.5H370.06q47.457,0,70.276-33.5,1.306-1.917,2.538-3.953c.042-.07.08-.144.123-.214.184-.307.358-.63.539-.94.63-1.076,1.247-2.17,1.847-3.294.264-.494.519-1,.777-1.5q.762-1.491,1.491-3.034c.254-.539.508-1.079.756-1.628.5-1.11.986-2.246,1.462-3.4.193-.47.395-.929.585-1.406.061-.152.126-.295.186-.448q.867-2.2,1.671-4.5c.019-.056.041-.109.061-.165.61-1.744,1.189-3.537,1.747-5.363.178-.582.342-1.185.515-1.775.37-1.268.735-2.545,1.082-3.851.191-.72.372-1.454.556-2.185.177-.707.367-1.394.537-2.111.1-.439.191-.9.293-1.347.273-1.19.532-2.4.787-3.62.214-1.026.427-2.054.629-3.1.24-1.255.466-2.535.688-3.82.183-1.062.369-2.121.539-3.2.209-1.322.4-2.673.588-4.025.153-1.1.311-2.184.451-3.3.176-1.4.332-2.829.488-4.258.1-.863.207-1.7.294-2.57.026-.259.043-.533.068-.793.144-1.486.265-3.009.388-4.528C462.113,680.544,462.214,679.434,462.294,678.291Z" fill="#9ebcea"></path>
    <path d="M566.619,590.79c-.315.633-.64,1.263-.963,1.895q-1.3,2.54-2.675,5.058c-.308.563-.609,1.128-.923,1.689q-1.824,3.261-3.777,6.486c-.135.223-.276.445-.413.667q-2.061,3.363-4.26,6.689L504.877,687H547.4l48.729-73.73c1.474-2.217,2.889-4.45,4.264-6.694.135-.22.275-.439.409-.66.084-.138.173-.275.257-.414,1.217-2.013,2.383-4.04,3.522-6.074.314-.561.613-1.125.921-1.688q1.38-2.52,2.678-5.062c.322-.63.646-1.259.96-1.891,1.1-2.2,2.163-4.415,3.169-6.644H569.787C568.781,586.375,567.715,588.586,566.619,590.79Z" fill="#9ebcea"></path>
    <polygon points="698.317 687.004 666.312 687.004 666.312 519.703 623.787 519.703 623.787 687.004 655.792 687.004 655.792 730.707 623.787 730.707 623.787 785.865 666.312 785.865 666.312 730.707 698.317 730.707 698.317 687.004" fill="#9ebcea"></polygon>
    <path d="M168.375,687h31.991v43.7H168.375v55.158H113.462V730.707H0V691.558L116.553,519.7h51.822ZM114.36,609.087q.921-21.476,1.457-24.94H114.36a202.07,202.07,0,0,1-16.179,29.127L49.451,687h64.011V641.855q0-11.271.9-32.768" fill="#dee8f5"></path>
    <path d="M397.075,550.466q23.555,34.956,23.548,102.311,0,69.727-22.812,103.225t-70.276,33.5q-46.005,0-69.376-34.6T234.8,652.777q0-70.443,22.717-103.852,22.737-33.4,70.016-33.408Q373.52,515.517,397.075,550.466ZM355.891,722.689q8.743-21.477,8.73-69.912,0-48.966-8.813-70.362t-28.273-21.381q-19.836,0-28.368,21.381-8.56,21.4-8.554,70.362,0,48.987,8.458,70.185t28.464,21.2q19.632,0,28.356-21.477" fill="#dee8f5"></path>
    <path d="M623.787,687h32v43.7h-32v55.158H568.874V730.707H455.413V691.558L571.966,519.7h51.821Zm-54-77.917q.9-21.476,1.457-24.94h-1.457a204.894,204.894,0,0,1-16.179,29.127L504.878,687h64V641.855q0-11.271.913-32.768" fill="#dee8f5"></path>
  </g>
</svg>