<svg id="Layer_1" data-name="Layer 1" xmlns="http://www.w3.org/2000/svg" viewBox="0 0 957.264 651.015">
  <path d="M744.932,88.6c-46.833,0-66.4,10.336-39.356,57.292s109.155,95.329,134.668,39.131C857,148.11,807.333,88.6,744.932,88.6Z" fill="#f3f5fd"></path>
  <path d="M94.883,651.015a78.86,78.86,0,0,1-74.261-52.123c-24.189-67.384-45.5-192.207,49.207-327.221C174.549,122.384,263.747,17.765,411.1,1.959,641.937-22.8,667.1,193.994,765.043,265.113c85.7,62.227,174.882,129.406,191.821,299a79,79,0,0,1-78.565,86.9Z" fill="#f3f5fd"></path>
  <g>
    <path d="M361.369,47.9V64H287.532A29.508,29.508,0,0,0,258.025,93.5V621.508a29.507,29.507,0,0,0,29.507,29.507H681.72a29.5,29.5,0,0,0,29.507-29.507V93.5A29.506,29.506,0,0,0,681.72,64H607.882V47.9A20.783,20.783,0,0,0,587.1,27.112H382.152A20.784,20.784,0,0,0,361.369,47.9Z" fill="#c1d8ed"></path>
    <rect x="215.717" y="158.195" width="537.819" height="398.62" rx="13.281" transform="translate(127.12 842.131) rotate(-90)" fill="#fafafa"></rect>
    <rect x="451.892" y="-8.223" width="65.468" height="193.638" rx="9.03" transform="translate(396.03 573.222) rotate(-90)" fill="#9EA7AA"></rect>
  </g>
  <path d="M394.292,157.243c-10.348-10.786-27.48-8.361-38.266,1.987l-.679.678-.733-.733c-10.562-10.576-27.7-13.37-38.275-2.808a27.064,27.064,0,0,0-.028,38.275l39.013,38.318a.162.162,0,0,0,.227,0l38.741-38.245A27.065,27.065,0,0,0,394.292,157.243Z" fill="#fd5d76"></path>
  <path d="M365.54,192.45a1.95,1.95,0,0,0-1.76,1.136l-3.287,7.3L355.837,170.5a1.932,1.932,0,0,0-1.852-1.628,2,2,0,0,0-1.934,1.511l-5.6,25.306-1.361-1.67a1.925,1.925,0,0,0-1.488-.706H313.721l1.537,1.676c.112.123.229.24.352.362l1.848,1.816h25.223l3.286,4.037a1.927,1.927,0,0,0,3.379-.793l4.244-19.146,4.079,26.635a1.9,1.9,0,0,0,1.564,1.6,1.53,1.53,0,0,0,.343.033,1.932,1.932,0,0,0,1.755-1.136l5.453-12.1H394.1l.911-.9q.612-.639,1.18-1.308l1.4-1.647Z" fill="#fff"></path>
  <g>
    <g>
      <g>
        <path d="M154.326,236.053l-.78.09H128.9c2-3.32,4.16-9.83,3.16-22l15.98-2.96S146.236,230.063,154.326,236.053Z" fill="#EDA59F"></path>
        <path d="M151.049,232.109l-13.272-10.154,10.424-.108A28.756,28.756,0,0,0,151.049,232.109Z" opacity="0.15"></path>
        <path d="M122.994,205.981c1.107,6.389,4.593,12.438,10.228,14.5a40.51,40.51,0,0,0,19.357,2.615c17.49-1.434,14.03-41.2,5.727-48.926s-32.673-2.833-35.637,10.087C121.136,190.941,121.942,199.9,122.994,205.981Z" fill="#EDA59F"></path>
        <path d="M164.075,175.545a5.567,5.567,0,0,0-2.12-1.96c-7.767-4.223-22.16-5.684-29.073-3.616-8.02,2.4-18.076,9.123-15.5,25.425.109.687.226,1.348.347,2a14,14,0,1,0,9.9,20.562,24.707,24.707,0,0,0,3.838,2.723c.957.569,1.189.106,1.521-.957,1.16-3.71,2.3-18.387,1.39-29.045l18.846-.651,3.284-9.343,2.691,9.343h6.419C166.479,184.96,167.367,179.222,164.075,175.545Z" fill="#0f1011"></path>
        <g>
          <circle cx="148.013" cy="199.611" r="1.449" fill="#0f1011"></circle>
          <circle cx="159.444" cy="198.674" r="1.449" fill="#0f1011"></circle>
          <path d="M161.955,195.586h-.008l-3.839-.048a.681.681,0,0,1,.009-1.362h.008l3.839.049a.681.681,0,0,1-.009,1.361Z" fill="#0f1011"></path>
          <path d="M144.885,196.986a.681.681,0,0,1-.158-1.343l3.784-.911a.681.681,0,0,1,.318,1.324l-3.784.911A.728.728,0,0,1,144.885,196.986Z" fill="#0f1011"></path>
        </g>
        <path d="M140.475,203.157a6.143,6.143,0,0,1-12.244,1,6.041,6.041,0,0,1,5.62-6.624C138.229,197.394,140.2,199.776,140.475,203.157Z" fill="#EDA59F"></path>
        <g opacity="0.15">
          <path d="M154.445,207.648a.5.5,0,0,1-.147-.978l2.947-.905-2.061-4.591a.5.5,0,0,1,.912-.409l2.293,5.107a.5.5,0,0,1-.309.683l-3.488,1.071A.5.5,0,0,1,154.445,207.648Z"></path>
        </g>
        <path d="M148.683,211.023s5.349.564,9.1-.746c0,0-.03,3.523-4.262,3.87S148.683,211.023,148.683,211.023Z" fill="#f8fcff"></path>
      </g>
      <g>
        <path d="M94.6,473.931h96.816L171.876,346.693l-66.03,4.532Z" fill="#dee8f5"></path>
        <path d="M94.6,473.931h96.816L171.876,346.693l-66.03,4.532Z" fill="#0f1011" opacity="0.07"></path>
      </g>
      <g>
        <path d="M192.729,640.2l-20.853-2.481c.939-7.892,2-17.373,2.072-18.927,0,.1,0,.181,0,.245h21C194.943,619.663,194.943,621.578,192.729,640.2Z" fill="#EDA59F"></path>
        <path d="M109.053,642.706l-21-.069s.071-21.684.071-23.6h21C109.124,620.959,109.053,642.706,109.053,642.706Z" fill="#EDA59F"></path>
        <path d="M163.482,633.565l36.994-.631c-1.737-44.031-1.844-90.218-2.386-134.356-7.22-47.574-10.023-103.92-18.935-151.153H99.66s-12.5,215.81-17.019,284.947l36.869,3.116c6.643-67.786,17.923-157.556,24.246-228.767,7.26,34.669,11.2,61.568,17.514,95.94C162.533,545.687,163.6,590.666,163.482,633.565Z" fill="#FFC107"></path>
        <path d="M134.582,650.828a4.107,4.107,0,0,0,4.076-4.427h0A4.108,4.108,0,0,0,136,642.872l-24.443-8.187a3.461,3.461,0,0,0-2.872.32,19.112,19.112,0,0,1-11.468,3.4,17.038,17.038,0,0,1-8.821-3.222,1.546,1.546,0,0,0-2.527,1.2v11.952a2.678,2.678,0,0,0,2.689,2.678Z" fill="#c1d8ed"></path>
        <path d="M218.315,650.828a4.108,4.108,0,0,0,4.077-4.427h0a4.109,4.109,0,0,0-2.659-3.529l-24.442-8.187a3.463,3.463,0,0,0-2.873.32,19.112,19.112,0,0,1-11.468,3.4,17.035,17.035,0,0,1-8.82-3.222,1.546,1.546,0,0,0-2.527,1.2v11.952a2.678,2.678,0,0,0,2.689,2.678Z" fill="#c1d8ed"></path>
      </g>
      <g>
        <path d="M90.149,377.634l.22-.457c.362,2.958,3.136,12.655.711,13.669-.922.386-2.336-2.345-3.248-4.4-1.981,4.513-1.679,14.713-1.316,20.441a1.887,1.887,0,0,1-3.189,1.48c-10.762-10.322-5.008-31.292-5.008-31.292l1.113-5.292Z" fill="#EDA59F"></path>
        <g>
          <path d="M263.527,266.969c2.835,3.254,1.255,8.886-6.261,13.468-11.425,6.964-14.5,3.661-17.331.407s6.652-7.269,13.219-14.1A6.865,6.865,0,0,1,263.527,266.969Z" fill="#EDA59F"></path>
          <path d="M239.421,275.813c-.154.134,9.783-14.373,13.415-10.741,1.6,1.6-3.1,7.093-3.1,7.093" fill="#EDA59F"></path>
        </g>
        <path d="M183.175,349.625c-4.189,9.63-86.519,13.63-87.619-3.31-.7-10.78,8.8-20.19,8.8-41.2s-19.33-47.84-3.58-63.59c4.571-4.57,12.461-7.52,22.08-7.53.721,5.61,34.781,5.63,35.04.13,1.3.02,2.311.04,2.94.07,33.181,1.43,18.6,39.19,18.281,66.93C178.726,333.585,187.5,339.705,183.175,349.625Z" fill="#f4f4f4"></path>
        <path d="M183.175,349.625c-4.189,9.63-82.415,14.74-83.515-2.2-.7-10.78,4.7-21.3,4.7-42.31s-17.492-47.573-1.742-63.323c4.57-4.57,11.07-7.34,20.69-7.35.72,5.61,34.346,5.766,34.606.266,1.3.02,2.31.04,2.94.07,33.18,1.43,18.587,38.607,18.267,66.347C178.726,333.585,187.5,339.705,183.175,349.625Z" fill="#D6D6D6"></path>
        <path d="M157.9,234.125c-.259,5.5-4.152,6.45-13.382,7.06-12.3.81-20.937-1.58-21.658-7.19h.031C135,234,150.835,234.015,157.9,234.125Z" fill="#EDA59F"></path>
        <path d="M137.988,290.048c4.406,44.549-1.513,127.037-1.566,195.784,0,0-29.129,5.871-53.781-3.912,0,0,14.8-157.758,19-193.157,0,0-.664,19.367-3.012,30.48s-4.615,60.243-4.615,60.243-5.192,1.129-21.559,1.129c0,0,0-55.129,3.913-71.173s17.55-68.819,29.477-72.956c9.556-3.316,22.9-2.491,22.9-2.491S135.978,269.722,137.988,290.048Z" fill="#dee8f5"></path>
        <path d="M128.742,234s10.638,40.947,10.638,83.077l-18.4-58.891,5.92-7.434-8.3-5.87,1.56-10.792C122.855,233.539,128.742,234,128.742,234Z" fill="#fff"></path>
        <path d="M153.653,234s-1.862,29.273-1.862,56.665,4.346,196.877,4.346,196.877,34.867.268,46.078-2.138c0,0-4.071-55.5-11.451-123.913-4.431-41.08-8.253-63.632-9.134-70.826,0,0,15.387,29.095,26.476,29.095s42.268-31,42.268-31,.707-6.952-6.874-22.02l-31.562,22.027s-28.42-46.678-37.906-51.843c-4.14-2.254-9.815-2.571-13.2-2.725C156.652,234.005,153.653,234,153.653,234Z" fill="#dee8f5"></path>
        <path d="M153.653,234s-3.523,45.708-1.575,81.494l11.182-57.308-5.365-6.652,6.727-5.087L160.835,234.2Z" fill="#fff"></path>
      </g>
    </g>
    <path d="M147.652,242.845a12.7,12.7,0,0,1-7.148-2.132c-4.389-2.9-7.551-8.815-8.9-16.644-1.383-8-.53-20-.492-20.512l2.992.218c-.009.121-.863,12.148.456,19.783,1.21,7.006,3.91,12.21,7.6,14.654a10.56,10.56,0,0,0,8.548,1.258c2.97-.7,5.033-1.953,6.131-3.735,1.146-1.86,1.331-4.448.551-7.693a22.879,22.879,0,0,0-2.072-5.531s.655-.256,1.457-.664a6.789,6.789,0,0,0,1.332-.882,34.637,34.637,0,0,1,2.2,6.375c.973,4.05.666,7.4-.914,9.969-1.532,2.486-4.223,4.2-8,5.082A16.349,16.349,0,0,1,147.652,242.845Z" fill="#FFC107"></path>
    <path d="M196.478,290.887c-33.092,0-46.33-47.958-46.877-50l2.9-.778c.129.478,13.19,47.777,43.98,47.777,15,0,24.549-7.022,32.979-13.218,9.371-6.888,17.464-12.837,29.332-5.808l-1.529,2.581c-10.163-6.017-16.816-1.126-26.026,5.645C222.868,283.235,212.457,290.887,196.478,290.887Z" fill="#FFC107"></path>
    <circle cx="262.478" cy="273.921" r="7.304" fill="#FFC107"></circle>
    <circle cx="262.478" cy="273.921" r="4.398" fill="#fff"></circle>
    <circle cx="132.564" cy="203.666" r="2.658" fill="#FFC107"></circle>
  </g>
  <path d="M380.821,353.505H329.4a19.757,19.757,0,0,1-19.735-19.735V282.352A19.757,19.757,0,0,1,329.4,262.617h51.418a19.757,19.757,0,0,1,19.735,19.735V333.77A19.757,19.757,0,0,1,380.821,353.505ZM329.4,272.617a9.746,9.746,0,0,0-9.735,9.735V333.77a9.746,9.746,0,0,0,9.735,9.735h51.418a9.746,9.746,0,0,0,9.735-9.735V282.352a9.746,9.746,0,0,0-9.735-9.735Z" fill="#dee8f5"></path>
  <path d="M380.821,469H329.4a19.757,19.757,0,0,1-19.735-19.735V397.851A19.757,19.757,0,0,1,329.4,378.116h51.418a19.757,19.757,0,0,1,19.735,19.735v51.418A19.757,19.757,0,0,1,380.821,469ZM329.4,388.116a9.746,9.746,0,0,0-9.735,9.735v51.418A9.746,9.746,0,0,0,329.4,459h51.418a9.746,9.746,0,0,0,9.735-9.735V397.851a9.746,9.746,0,0,0-9.735-9.735Z" fill="#dee8f5"></path>
  <path d="M380.821,584.5H329.4a19.758,19.758,0,0,1-19.735-19.736V513.35A19.757,19.757,0,0,1,329.4,493.615h51.418a19.757,19.757,0,0,1,19.735,19.735v51.418A19.758,19.758,0,0,1,380.821,584.5ZM329.4,503.615a9.746,9.746,0,0,0-9.735,9.735v51.418A9.747,9.747,0,0,0,329.4,574.5h51.418a9.747,9.747,0,0,0,9.735-9.736V513.35a9.746,9.746,0,0,0-9.735-9.735Z" fill="#dee8f5"></path>
  <path d="M344.39,327.9A4.494,4.494,0,0,1,341,326.367L325.74,308.92A4.5,4.5,0,0,1,332.515,303l12.363,14.134,33.332-27.863a4.5,4.5,0,1,1,5.772,6.9l-36.707,30.686A4.489,4.489,0,0,1,344.39,327.9Z" fill="#fd5d76"></path>
  <path d="M344.39,443.4A4.49,4.49,0,0,1,341,441.866L325.74,424.42a4.5,4.5,0,0,1,6.775-5.926l12.363,14.135,33.332-27.864a4.5,4.5,0,1,1,5.772,6.905l-36.707,30.685A4.489,4.489,0,0,1,344.39,443.4Z" fill="#fd5d76"></path>
  <path d="M344.39,558.9A4.49,4.49,0,0,1,341,557.365L325.74,539.919a4.5,4.5,0,0,1,6.775-5.926l12.363,14.135,33.332-27.864a4.5,4.5,0,1,1,5.772,6.9l-36.707,30.685A4.489,4.489,0,0,1,344.39,558.9Z" fill="#fd5d76"></path>
  <g opacity="0.62">
    <rect x="534.911" y="189.534" width="11.987" height="237.055" rx="5.994" transform="translate(232.844 848.966) rotate(-90)" fill="#dee8f5"></rect>
    <rect x="534.911" y="152.792" width="11.987" height="237.055" rx="5.994" transform="translate(269.585 812.224) rotate(-90)" fill="#dee8f5"></rect>
    <rect x="509.911" y="251.275" width="11.987" height="187.055" rx="5.994" transform="translate(171.102 860.708) rotate(-90)" fill="#dee8f5"></rect>
  </g>
  <g opacity="0.62">
    <rect x="534.911" y="305.033" width="11.987" height="237.055" rx="5.994" transform="translate(117.345 964.465) rotate(-90)" fill="#dee8f5"></rect>
    <rect x="534.911" y="268.291" width="11.987" height="237.055" rx="5.994" transform="translate(154.086 927.723) rotate(-90)" fill="#dee8f5"></rect>
    <rect x="509.911" y="366.774" width="11.987" height="187.055" rx="5.994" transform="translate(55.603 976.207) rotate(-90)" fill="#dee8f5"></rect>
  </g>
  <g opacity="0.62">
    <rect x="534.911" y="420.532" width="11.987" height="237.055" rx="5.994" transform="translate(1.846 1079.964) rotate(-90)" fill="#dee8f5"></rect>
    <rect x="534.911" y="383.79" width="11.987" height="237.055" rx="5.994" transform="translate(38.587 1043.222) rotate(-90)" fill="#dee8f5"></rect>
    <rect x="509.911" y="482.273" width="11.987" height="187.055" rx="5.994" transform="translate(-59.896 1091.706) rotate(-90)" fill="#dee8f5"></rect>
  </g>
  <g>
    <path d="M653.308,502.471v91.091a21.224,21.224,0,0,1-21.2,21.235h-.036a21.224,21.224,0,0,1-21.2-21.235V502.471Z" fill="#8ddbe0"></path>
    <path d="M653.308,388.335H610.875a2.948,2.948,0,0,0,0,5.9h0V502.471h42.432V394.23h0a2.948,2.948,0,1,0,0-5.9Z" fill="#dee8f5"></path>
    <path d="M740.532,475.666v117.9a21.224,21.224,0,0,1-21.2,21.235H719.3a21.224,21.224,0,0,1-21.2-21.235v-117.9Z" fill="#FFC107"></path>
    <path d="M740.532,388.335H698.1a2.948,2.948,0,1,0,0,5.9h0v81.436h42.433V394.23h0a2.948,2.948,0,1,0,0-5.9Z" fill="#dee8f5"></path>
    <path d="M827.755,489.068V593.562a21.224,21.224,0,0,1-21.2,21.235h-.036a21.224,21.224,0,0,1-21.2-21.235V489.068Z" fill="#9EA7AA"></path>
    <path d="M827.756,388.335H785.323a2.948,2.948,0,1,0,0,5.9h0v94.838h42.432V394.23h0a2.948,2.948,0,0,0,0-5.9Z" fill="#dee8f5"></path>
    <path d="M879.873,640.963h-7.3V436.2a5.026,5.026,0,0,0-5.026-5.026H571.082a5.026,5.026,0,0,0-5.025,5.026V640.963h-7.3a5.026,5.026,0,0,0,0,10.052h24.649a5.026,5.026,0,0,0,0-10.052h-7.3V441.227H862.523V640.963h-7.3a5.026,5.026,0,0,0,0,10.052h24.649a5.026,5.026,0,0,0,0-10.052Z" fill="#9ebcea"></path>
  </g>
  <rect x="524.911" y="58.267" width="11.987" height="217.055" rx="5.994" transform="translate(364.11 697.7) rotate(-90)" fill="#d7e8f4"></rect>
  <rect x="524.911" y="118.104" width="11.987" height="167.055" rx="5.994" transform="translate(329.274 732.536) rotate(-90)" fill="#d7e8f4"></rect>
</svg>