<svg version="1.1" id="Calque_1" xmlns="http://www.w3.org/2000/svg" xmlns:xlink="http://www.w3.org/1999/xlink" x="0px" y="0px"
	 width="432px" height="432px" viewBox="0 0 432 432" enable-background="new 0 0 432 432" xml:space="preserve">
<g>
	<path fill="#c79100" d="M190.084,300.994c0.794-1.158,1.244-2.627,1.469-3.703c0.708-3.247-1.093-5.343-3.669-6.827
		c-1.45-0.808-3.273-0.981-4.967-1.018c-0.882,0.023-3.58,0.47-2.658-0.978c0.484-0.742,1.894-1.323,2.634-1.848
		c0.996-0.729,1.559-1.143,2.003-1.456c0.446-0.307,0.785-0.494,1.298-0.802c0.407-0.244,0.93-0.569,1.678-1.121
		c1.253-1.048,1.253-1.048,2.145-1.713c0.139-0.119,0.282-0.238,0.43-0.368c0.567-0.514,1.175-0.98,1.724-1.515
		c0.28-0.271,0.501-0.601,0.772-0.879c0.458-0.467,1.009-0.911,1.598-1.195c0.662-0.321,1.353-0.578,2.048-0.82
		c2.038-0.707,4.086-1.174,5.775-2.279c2.579-1.724,4.792-4.026,5.665-7.058c0.175-0.869,0.847-3.504,0.794-5.864
		c-0.045-2.354-0.795-4.409-3.379-4.207c-0.553,0.139-2.469,1.306-4.421,2.574c-1.979,1.25-4.001,2.598-4.758,3.187
		c-2.391,2.104-3.725,4.083-4.57,7.892c-0.233,1.105-0.299,2.234-0.401,3.356c-0.053,0.554-0.112,1.107-0.208,1.656
		c-0.095,0.543-0.293,0.976-0.489,1.487c-0.117,0.304-0.366,0.47-0.591,0.694c-0.24,0.239-0.467,0.487-0.694,0.738
		c-0.45,0.494-0.901,0.993-1.408,1.427c-1.537,1.312-3.212,2.485-4.893,3.609c-1.472,0.896-2.908,1.835-4.218,2.49
		c-0.646,0.345-1.238,0.659-1.751,0.931c-0.516,0.259-0.963,0.451-1.296,0.609c0.361-0.392,0.621-0.641,0.974-1.082
		c0.341-0.457,0.782-1.106,1.471-2.259c0.479-0.748,1.184-2.57,1.634-4.733c0.461-2.159,0.586-4.781,0.183-7.091
		c0.465,0.445,1.152,0.521,1.595,0.277c0.821-0.452,1.192-1.042,1.25-1.645c0.052-0.617-0.209-1.251-0.609-1.784
		c-0.403-0.531-0.947-0.972-1.474-1.209c-0.533-0.25-1.055-0.31-1.42-0.05c-0.143,0.102-0.261,0.206-0.368,0.321
		c0.091-0.747,0.249-1.442-0.268-2.124c-0.466-0.613-0.845-0.993-1.185-1.189c-0.68-0.394-1.205-0.05-1.958,0.662
		c-0.497,0.416-1.202,0.822-1.331,1.628c-0.124,0.751,0.181,1.611,0.665,2.288c0.938,1.317,1.727,1.716,2.935,1.089
		c0.172,0.427,0.341,0.938,0.499,1.584c0.416,1.542,0.758,4.75,0.757,5.596c0.005,1.192-0.196,2.398-0.546,3.569
		c-0.346,1.177-0.879,2.226-1.463,3.219c-0.58,1.002-1.263,1.832-1.921,2.502c-0.659,0.667-1.28,1.197-1.804,1.457
		c-0.589,0.294-2.674,0.973-3.044,0.29c-0.275-0.522,0.589-1.706,0.736-2.198c0.437-1.41,0.883-2.795,1.044-4.271
		c0.078-0.562,0.107-1.121,0.159-1.715c0.041-0.587,0.173-1.143,0.218-1.731c0.135-1.456,0.227-3.241-1.835-6.966
		c-0.528-1.104-1.412-2.731-2.321-3.801c-0.927-1.09-1.845-1.66-2.596-0.536c-0.952,1.312-1.59,3.657-2.174,5.53
		c-0.713,2.489-1.326,4.788-1.557,7.204c-0.227,2.408-0.095,4.871,0.68,7.485c0.278,0.946,0.954,2.308,0.449,3.289
		c-0.685,1.268-3.76,1.083-5.034,1.116c-4.234,0.207-6.43,0.006-7.79-0.069c-1.364-0.066-1.896-0.092-2.777-0.137
		c-0.842-0.025-3.033,0.047-3.44-0.923c-0.251-0.574,1.536-1.126,2.053-1.498c1.255-0.836,2.34-1.744,3.255-2.852
		c0.918-1.106,1.669-2.308,2.271-3.586c1.201-2.571,1.784-5.522,1.959-8.545c0.253-0.158,0.415-0.446,0.58-0.846
		c0.251-0.591,0.521-1.271,0.292-1.98c-0.161-0.497-0.416-1.479-0.769-1.772c-0.478-0.388-1.265-0.41-1.769-0.373
		c-1.298,0.046-1.648,2.417-0.848,4.37c0.182,0.44,0.428,0.988,0.818,1.063c0.077,5.585-1.488,7.907-2.222,9.386
		c-0.869,1.842-2.376,3.489-4.321,4.764c-1.934,1.168-4.311,1.871-6.663,1.513c-0.811-0.067-3.321-0.594-2.835-1.9
		c0.223-0.595,1.463-0.836,1.954-1.071c2.063-1.09,3.18-1.919,3.903-2.597c0.718-0.686,1.035-1.252,1.392-1.774
		c0.394-0.564,0.823-1.601,0.931-2.251c0.219-1.289,0.852-3.962,0.882-5.982c0.02-1.011-0.1-1.856-0.479-2.28
		c-0.372-0.422-0.999-0.409-2.077,0.181c-2.224,1.286-3.797,1.629-6.253,3.412l-0.309,0.206c-1.488,0.993-3.046,2.261-4.386,3.682
		c-1.334,1.405-2.451,3.03-2.981,4.877c-0.214,0.738-0.303,1.677-1.025,2.104c-0.952,0.565-2.406-0.16-3.33-0.481
		c-1.373-0.439-2.932-0.896-4.378-1.454c-1.458-0.535-2.861-1.022-3.938-1.492c1.443-0.418,2.914-0.958,4.306-1.546
		c1.393-0.6,2.696-1.212,3.892-1.995c2.382-1.531,4.194-3.354,5.075-5.529c0.07,0.073,0.133,0.152,0.211,0.216
		c0.259,0.212,0.73,0.388,1.006,0.085c0.46-0.512,1.017-1.128,1.22-1.823c0.18-0.619,0.268-1.303,0.242-1.929
		c-0.028-0.702-0.313-0.949-0.77-1.287c-0.263-0.208-0.601-0.397-0.954-0.242c-0.571,0.257-1.087,1.033-1.384,1.652l-0.105,0.04
		c-0.003-0.446-0.062-0.786-0.384-1.005c-0.353-0.246-0.756-0.363-1.188-0.403c-0.308-0.027-0.634,0.211-0.897,0.402
		c-0.345,0.253-0.711,1.3-0.229,2.478c0.098,0.249,0.158,0.592,0.357,0.726c0.33,0.234,0.908,0.543,1.365,0.669
		c-0.563,1.528-1.728,2.956-3.147,4.182c-1.412,1.221-3.056,2.171-4.501,2.893c-0.645,0.317-1.421,0.75-2.221,1.104
		c-0.796,0.334-1.615,0.596-2.346,0.609c-0.567,0.006-2.608-0.479-2.567-1.261c0.015-0.343,1.239-0.871,1.552-1.132
		c2.062-1.652,4.044-5.222,4.713-11.119c0.185-1.679,1.515-6.5,0.342-7.621c-1.049-0.973-4.077,0.942-5.164,1.653
		c-0.218,0.146-1.377,0.786-1.508,0.89c-1.698,1.307-0.955,0.741-2.032,1.753c-0.432,0.434-0.556,0.526-1.132,1.389
		c-1.229,1.946-2.425,3.972-3.148,6.219c-0.326,1.035-0.628,2.063-0.66,3.149c-0.066,2.5-2.529,0.883-3.693,0.142
		c-0.952-0.574-1.8-1.086-2.617-1.577c-0.798-0.519-1.57-1.016-2.378-1.539c-0.806-0.531-1.665-1.064-2.609-1.711
		c-0.941-0.653-1.989-1.38-3.216-2.23c-0.346-0.195-3.961-2.353-3.283-2.813c0.306-0.208,2.498,0.874,2.909,1.002
		c1.92,0.556,3.996,1.016,5.965,0.757c1.873-0.258,6.29-2.57,9.558-6.064c0.935,0.063,0.652,0.063,1.319-0.212
		c0.854-0.363,1.273-0.906,1.758-1.708c0.255-0.421,0.403-0.678,0.354-1.153c-0.125-1.295-0.251-1.204-0.911-1.887
		c-0.199-0.204-0.379-0.462-0.609-0.625c-0.653-0.463-1.694-0.843-2.446-0.133c-0.512,0.486-0.915,1.319-1.142,1.971
		c-0.173,0.483-0.449,1.736-0.337,2.287c0.023,0.117,0.056,0.222,0.092,0.321c-1.478,1.98-3.279,3.528-5.261,4.977
		c-2.036,1.234-2.77,1.546-5.414,1.307c-2.154-0.199-4.229-1.042-6.21-1.898c-0.594-0.253-2.208-0.672-2.482-1.334
		c-0.383-0.885,1.104-0.592,1.52-0.594c2.301-0.043,4.591-0.775,6.699-1.632c3.314-1.268,5.455-3.394,7.949-5.95
		c0.738-0.752,3.26-2.767,3.067-3.951c-0.131-0.858-1.126-1.181-2.235-1.396c-1.11-0.206-2.362-0.227-2.997-0.326
		c-1.485-0.227-2.674-0.403-3.69-0.511c-1.022-0.099-1.885-0.103-2.714-0.014c-1.659,0.182-3.188,0.748-5.655,1.626
		c-2.07,0.743-4.355,1.762-5.826,3.595c-0.924,1.143-1.355,4.401-3.381,4.097c-1.18-0.173-2.398-1.652-3.218-2.4l-3.063-2.729
		c-1.013-0.916-1.998-1.862-3-2.791l-1.585-1.488c-0.339-0.311-0.865-0.296-1.179,0.032c-0.317,0.329-0.302,0.854,0.036,1.171
		c0,0,0.77,0.718,2.206,2.065c1.422,1.366,3.58,3.293,6.336,5.738c1.941,1.703,3.612,2.402,4.838,6.48
		c0.325,1.035,0.055,1.71-0.173,2.746c-1.139,5.222-2.594,12.949,2.391,20.021c1.563,2.248,3.72,1.725,5.519,0.345
		c1.814-1.38,3.333-3.619,3.867-4.829c0.922-2.15,0.928-4.421,0.009-6.63c-0.378-0.929-0.88-1.798-1.396-2.647
		c-0.346-0.564-1.699-2.089-0.441-2.328c0.549-0.106,0.889,0.305,1.269,0.634c2.564,2.287,4.319,4.111,5.421,5.771
		c1.089,1.673,1.616,3.062,1.733,4.433c0.26,2.729-0.979,5.157-1.321,8.263c-0.439-0.036-0.896,0.008-1.235,0.225
		c-0.61,0.391-1.189,1.397-1.221,2.127c-0.11,1.684,1.966,4.035,3.873,3.657c1.851-0.378,2.845-1.553,3.011-3.329
		c0.058-0.619-0.043-0.861-0.641-1.206c-0.341-0.2-0.651-0.494-0.986-0.705c-0.195-1.539-0.382-3.05-0.408-4.579
		c-0.018-1.899,0.052-3.522-0.284-5.138c-0.327-1.623-1.075-3.198-2.583-5.15c-0.466-0.59-1.41-1.278-1.65-1.962
		c-0.033-0.09,0.992,0.111,1.09,0.154c0.5,0.222,0.982,0.642,1.444,0.938c5.842,3.645,6.362,3.966,12.506,6.778
		c1.169,0.501,2.577,0.943,3.568,1.763c1.446,1.247-1.494,3.06-2.287,4.118c-0.712,1.186-1.143,3.31-1.08,5.717
		c0.074,2.391,0.601,5.13,1.877,7.336c1.265,2.227,2.746,3.384,4.223,3.384c1.465,0.027,2.831-1.009,3.897-3.011
		c0.402-0.756,0.609-1.35,1.216-2.021c0.589-0.655,1.161-1.294,1.413-2.147c0.897-3.112,0.244-6.563-0.77-8.511
		c-0.312-0.587-1.134-1.366-0.164-1.798c0.692-0.308,1.82,0.311,2.492,0.515c0.295,0.157,6.649,1.809,11.668,2.955
		c0.685,0.143,1.688,0.352,2.671,0.556c0.979,0.213,1.919,0.526,2.444,1.053c0.935,0.929-0.197,3.56-0.178,4.735
		c0.043,2.132,1.001,4.414,2.323,6.229c0.59,0.801,0.107,0.144,0.459,0.622c0.038,0.044,0.052,0.063,0.087,0.096
		c0.941,0.991,2.766,2.589,4.883,3.86c1.048,0.658,2.19,1.107,3.276,1.401c1.09,0.269,2.132,0.367,3.012,0.033
		c1.779-0.642,1.389-3.854,1.685-5.151c0.631-2.809,0.08-5.125-1.422-7.584c-0.246-0.397-0.959-0.923-1.413-1.432
		c-0.458-0.521-0.659-1.013,0.062-1.322c0.52-0.234,1.384-0.027,1.936,0.011c2.713,0.221,6.256,0.345,8.211,1.894
		c1.159,0.933,1.728,2.226,2.244,3.616c0.517,1.382,0.975,2.86,2.034,4.118c-0.36,0.429-0.599,1.068-0.754,1.494
		c-0.282,0.764-0.245,1.37,0.296,1.994c0.932,1.043,2.445,1.179,4.122,0.77c1.503-0.371,1.653-1.379,1.376-2.359
		c-0.088-0.321-0.194-0.564-0.387-0.75c0.174-0.217,0.276-0.457,0.301-0.706c0.058-0.005,0.109-0.006,0.167-0.015
		c0.557-0.103,1.097-0.386,1.621-0.577c0.525-0.197,1.1-0.367,1.17-0.902c0.07-0.504-0.239-1.288-0.509-1.696
		c-0.51-0.747-1.873-1.42-2.95-1.062c-0.617,0.201-1.252,0.55-1.755,0.944c-0.385,0.294-0.67,0.646-0.998,0.977
		c-1.387-1.117-2.196-2.913-3.495-4.491c-0.645-0.779-1.413-1.538-2.414-2.166c-1.002-0.644-2.224-1.052-3.814-1.385
		c0.727,0.162,1.635,0.039,2.543-0.143c0.908-0.193,1.824-0.391,2.56-0.547c1.333-0.289,2.398-0.518,3.415-0.801
		c1.009-0.311,1.979-0.637,3.144-1.043c2.458-0.988,3.708,0.314,4.733,2.136c1.026,1.815,1.75,4.165,3.295,5.095
		c0.462,0.312,4.092,1.675,4.693,1.844c0.924,0.264,1.864,0.479,2.795,0.73c0.807,0.219,1.51,0.136,2.115-0.139
		C189.199,302.061,189.686,301.567,190.084,300.994z"/>
	<path d="M405.242,200.003c-0.199-0.257-0.44-0.427-0.726-0.513s-0.556-0.014-0.813,0.213c-0.256,0.229-0.441,0.629-0.555,1.197
		c-0.629,2.565-1.356,5.502-2.181,8.807c-0.828,3.307-1.727,6.712-2.693,10.218c-0.97,3.505-2.009,6.94-3.12,10.303
		c-1.112,3.364-2.238,6.37-3.378,9.021c-1.142,2.65-2.28,4.787-3.42,6.412c-1.142,1.625-2.224,2.437-3.25,2.437
		c-0.741,0-1.511-1.056-2.308-3.163c-0.799-2.109-1.582-4.916-2.352-8.422s-1.496-7.51-2.18-12.013s-1.283-9.134-1.796-13.894
		c-0.514-4.759-0.927-9.477-1.239-14.15c-0.314-4.674-0.471-8.92-0.471-12.74v-2.479c1.368-1.425,3.021-3.221,4.959-5.387
		c1.937-2.166,3.946-4.545,6.027-7.14c2.08-2.593,4.133-5.356,6.156-8.294c2.023-2.935,3.848-5.927,5.472-8.977
		c1.625-3.049,2.936-6.084,3.934-9.105c0.996-3.021,1.496-5.928,1.496-8.722c0-3.876-0.655-6.981-1.966-9.319
		c-1.313-2.337-3.25-3.506-5.815-3.506c-3.135,0-6.156,1.068-9.062,3.207c-2.908,2.137-5.631,5.044-8.166,8.721
		c-2.538,3.676-4.846,7.951-6.926,12.824c-2.081,4.874-3.862,10.033-5.345,15.477c-1.481,5.443-2.637,11.029-3.462,16.758
		c-0.826,5.729-1.239,11.272-1.239,16.629c0,3.896,0.117,7.93,0.343,12.093c-0.07,0.31-0.138,0.609-0.214,0.946
		c-0.485,2.138-1.056,4.519-1.711,7.14c-0.655,2.622-1.409,5.301-2.265,8.036c-0.855,2.736-1.768,5.246-2.737,7.524
		c-0.969,2.28-2.009,4.147-3.12,5.601c-1.112,1.453-2.237,2.18-3.378,2.18c-0.684,0-1.21-0.542-1.581-1.624
		c-0.372-1.083-0.613-2.522-0.727-4.317c-0.115-1.796-0.144-3.861-0.085-6.199c0.056-2.336,0.185-4.745,0.385-7.225
		c0.198-2.479,0.413-4.944,0.641-7.396c0.228-2.449,0.456-4.688,0.684-6.711s0.413-3.732,0.557-5.131
		c0.141-1.396,0.214-2.321,0.214-2.777c0-0.912-0.257-1.754-0.771-2.523c-0.513-0.77-1.153-1.438-1.923-2.009
		c-0.77-0.569-1.597-1.011-2.479-1.325c-0.885-0.313-1.696-0.471-2.437-0.471c-0.742,0-1.228,0.086-1.453,0.257
		c-0.229,0.171-0.343,0.414-0.343,0.728s0.071,0.713,0.214,1.196c0.142,0.485,0.214,1.013,0.214,1.581
		c0,0.229-0.171,1.185-0.513,2.865c-0.342,1.682-0.813,3.719-1.411,6.113c-0.599,2.394-1.282,4.945-2.053,7.652
		c-0.77,2.707-1.581,5.215-2.437,7.523c-0.854,2.309-1.725,4.232-2.607,5.771c-0.885,1.539-1.726,2.309-2.522,2.309
		c-0.628,0-1.026-0.484-1.196-1.453c-0.173-0.969-0.229-2.236-0.173-3.805c0.058-1.568,0.199-3.293,0.428-5.174
		s0.485-3.732,0.771-5.557c0.284-1.824,0.526-3.506,0.727-5.045c0.199-1.539,0.3-2.736,0.3-3.591s-0.3-1.71-0.897-2.565
		c-0.6-0.854-1.327-1.638-2.181-2.352c-0.854-0.711-1.768-1.295-2.735-1.752c-0.971-0.455-1.854-0.684-2.651-0.684
		s-1.396,0.043-1.796,0.127c-0.397,0.086-0.669,0.187-0.812,0.3c-0.142,0.116-0.199,0.271-0.171,0.47
		c0.029,0.201,0.043,0.385,0.043,0.557c0,0.342-0.057,1.24-0.172,2.693c-0.113,1.453-0.227,3.15-0.342,5.087
		c-0.113,1.938-0.227,3.919-0.342,5.942c-0.062,1.102-0.105,2.125-0.134,3.082c-0.332,0.389-0.667,0.773-1.013,1.15
		c-1.678,1.824-3.496,3.591-5.455,5.301c-1.96,1.71-4.047,3.42-6.262,5.13c-1.646-3.078-3.408-5.827-5.282-8.251
		c-1.874-2.422-3.721-4.402-5.537-5.941v-4.189c0-0.912,0-1.796,0-2.65c0-0.855,0.028-1.711,0.085-2.566
		c2.395-1.652,5.174-3.689,8.336-6.113c3.164-2.422,6.413-5.129,9.748-8.121c3.334-2.993,6.626-6.228,9.875-9.705
		c3.249-3.477,6.141-7.139,8.678-10.986c2.536-3.848,4.588-7.794,6.156-11.842c1.567-4.047,2.352-8.15,2.352-12.313
		c0-2.678-0.371-4.986-1.111-6.926c-0.742-1.937-1.74-3.548-2.992-4.83c-1.255-1.283-2.681-2.236-4.276-2.864
		c-1.596-0.626-3.248-0.94-4.958-0.94c-2.736,0-5.686,0.684-8.85,2.052s-6.356,3.492-9.576,6.37
		c-3.221,2.879-6.355,6.512-9.404,10.9c-3.051,4.391-5.787,9.592-8.209,15.604c-2.423,6.015-4.418,12.897-5.984,20.647
		c-1.568,7.753-2.522,16.389-2.864,25.907c-2.735,0.97-4.759,2.536-6.071,4.702c-1.311,2.167-1.937,4.519-1.881,7.055
		c0.059,2.536,0.785,5.016,2.181,7.438c0.405,0.704,0.872,1.361,1.386,1.98c-0.529,1.014-1.089,1.918-1.686,2.68
		c-1.025,1.312-2.195,1.967-3.506,1.967c-1.196,0-2.209-0.596-3.035-1.789s-1.624-2.699-2.394-4.518
		c-0.77-1.817-1.581-3.777-2.437-5.881c-0.855-2.102-1.924-4.063-3.207-5.881c-1.281-1.817-2.808-3.323-4.574-4.516
		c-1.767-1.193-3.962-1.791-6.583-1.791c2.508-2.443,4.759-4.858,6.755-7.244c0.855-1.022,1.695-2.102,2.521-3.238
		c0.826-1.136,1.553-2.258,2.181-3.367c0.626-1.107,1.14-2.201,1.539-3.281c0.397-1.079,0.599-2.102,0.599-3.068
		c0-2.5-0.527-4.572-1.582-6.221s-2.836-2.473-5.344-2.473c-1.996,0-3.62,0.885-4.873,2.651c-1.255,1.767-2.252,3.947-2.992,6.54
		c-0.742,2.595-1.255,5.402-1.539,8.422c-0.287,3.022-0.457,5.786-0.514,8.295l-1.625-6.499c-0.684-3.249-1.324-6.683-1.924-10.303
		c-0.598-3.619-1.068-7.368-1.41-11.246c1.539-1.312,3.32-2.882,5.344-4.709c2.023-1.825,4.09-3.881,6.199-6.165
		c2.107-2.283,4.203-4.752,6.283-7.406s3.919-5.437,5.516-8.349c1.595-2.911,2.893-5.937,3.891-9.077
		c0.996-3.139,1.496-6.334,1.496-9.589c0-1.598-0.229-3.097-0.685-4.495s-1.169-2.627-2.138-3.682
		c-0.97-1.056-2.223-1.885-3.762-2.484c-1.539-0.598-3.363-0.898-5.472-0.898c-3.991,0-7.539,0.784-10.646,2.352
		c-3.107,1.568-5.843,3.662-8.207,6.283c-2.366,2.623-4.361,5.602-5.985,8.936s-2.964,6.77-4.019,10.303
		c-1.055,3.535-1.811,7.025-2.266,10.474c-0.455,3.449-0.684,6.569-0.684,9.362c0,4.617,0.199,9.234,0.598,13.851
		c0.398,4.617,0.969,9.05,1.711,13.296c0.739,4.246,1.609,8.223,2.607,11.927c0.159,0.594,0.325,1.153,0.49,1.721
		c-0.69,2.597-1.477,5.405-2.371,8.454c-1.056,3.591-2.195,7.281-3.42,11.072c-1.227,3.791-2.451,7.238-3.677,10.346
		c-1.227,3.105-2.409,5.656-3.548,7.652c-1.141,1.994-2.109,2.992-2.907,2.992c-1.026,0-1.683-0.972-1.967-2.911
		c-0.286-1.941-0.342-4.466-0.171-7.576s0.498-6.604,0.983-10.485c0.483-3.881,0.968-7.734,1.453-11.558
		c0.483-3.823,0.926-7.448,1.325-10.873c0.398-3.425,0.599-6.22,0.599-8.39c0-1.884-0.101-3.766-0.3-5.65
		c-0.199-1.883-0.641-3.581-1.324-5.094c-0.685-1.512-1.682-2.738-2.992-3.68c-1.313-0.941-3.051-1.414-5.217-1.414
		c-0.854,0-1.709,0.243-2.564,0.727c-0.855,0.485-1.667,1.127-2.437,1.924c-0.77,0.799-1.511,1.711-2.224,2.736
		s-1.383,2.081-2.009,3.164c-1.483,2.508-2.821,5.357-4.019,8.549c-0.057-2.449-0.457-4.645-1.197-6.583
		c-0.342-0.854-0.783-1.681-1.324-2.479c-0.543-0.797-1.213-1.51-2.01-2.138c-0.799-0.626-1.753-1.124-2.864-1.496
		c-1.112-0.37-2.409-0.556-3.891-0.556c-1.368,0-2.366,0.171-2.992,0.514c-0.626,0.342-0.94,1.025-0.94,2.051
		c0,0.514,0.1,0.913,0.299,1.197c0.201,0.286,0.414,0.642,0.642,1.068c0.228,0.428,0.44,1.041,0.642,1.839
		c0.199,0.799,0.299,1.966,0.299,3.505c0,1.027-0.029,2.537-0.086,4.532s-0.072,4.189-0.043,6.583
		c0.029,2.395,0.129,4.846,0.3,7.354c0.087,1.285,0.213,2.507,0.375,3.672c-0.389,0.881-0.771,1.76-1.188,2.654
		c-1.227,2.623-2.494,5.002-3.805,7.141c-1.312,2.137-2.665,3.904-4.061,5.301c-1.398,1.396-2.779,2.094-4.147,2.094
		c-1.425,0-2.466-0.602-3.12-1.806c-0.656-1.204-1.084-2.737-1.283-4.601c-0.2-1.863-0.229-3.898-0.085-6.104
		c0.142-2.203,0.342-4.304,0.599-6.3c0.256-1.995,0.513-3.72,0.77-5.173c0.256-1.453,0.385-2.379,0.385-2.778
		c0-0.569-0.129-1.311-0.385-2.224c-0.257-0.91-0.629-1.809-1.111-2.693c-0.485-0.883-1.084-1.637-1.796-2.266
		c-0.714-0.626-1.554-0.939-2.522-0.939c-0.855,0-1.639,0.385-2.352,1.154s-1.354,1.81-1.924,3.12
		c-0.114,0.286-0.229,0.585-0.342,0.897c-0.115,0.314-0.229,0.642-0.342,0.983c-0.399,1.083-0.94,2.437-1.625,4.062
		c-0.684,1.625-1.41,3.206-2.18,4.746c-0.77,1.538-1.554,2.85-2.352,3.932c-0.799,1.084-1.482,1.625-2.052,1.625
		c-0.799,0-1.298-0.553-1.496-1.662c-0.2-1.107-0.3-2.258-0.3-3.452c0-1.876,0.428-4.12,1.283-6.734
		c0.854-2.613,1.979-5.099,3.377-7.458c1.396-2.358,2.979-4.375,4.745-6.053c1.767-1.675,3.562-2.514,5.387-2.514
		c1.539,0,2.85,0.256,3.933,0.77c1.082,0.513,1.938,0.998,2.565,1.453c0.626,0.457,1.082,0.713,1.368,0.77
		c0.284,0.058,0.428-0.369,0.428-1.282c0-0.911-0.201-1.852-0.6-2.821c-0.398-0.969-0.982-1.838-1.752-2.607
		s-1.71-1.396-2.822-1.882c-1.111-0.483-2.351-0.727-3.719-0.727c-3.762,0-7.083,0.854-9.961,2.565
		c-2.879,1.709-5.301,3.791-7.268,6.241c-1.967,2.451-3.463,5.044-4.488,7.78c-1.026,2.736-1.539,5.13-1.539,7.182
		c0,1.825,0.299,3.563,0.897,5.216c0.599,1.653,1.341,3.107,2.224,4.36c0.561,0.798,1.16,1.479,1.79,2.068
		c-0.621,2.885-1.271,5.759-1.961,8.619c-0.77,3.193-1.568,6.27-2.394,9.234c-0.828,2.963-1.697,5.57-2.608,7.823
		c-0.913,2.251-1.825,4.062-2.735,5.429c-0.913,1.369-1.796,2.053-2.651,2.053c-1.141,0-2.038-0.613-2.692-1.838
		c-0.656-1.227-1.17-2.908-1.539-5.045c-0.372-2.138-0.613-4.646-0.728-7.524c-0.114-2.879-0.171-5.972-0.171-9.276
		c0-3.592,0.328-7.51,0.983-11.756s1.339-8.508,2.052-12.783c0.713-4.274,1.326-8.406,1.838-12.396
		c0.514-3.99,0.612-7.524,0.3-10.603c-0.313-3.078-1.184-5.543-2.608-7.396c-1.425-1.852-3.676-2.779-6.754-2.779
		c-2.167,0-4.019,0.599-5.558,1.796c-1.538,1.196-2.836,2.778-3.89,4.745c-1.056,1.967-1.91,4.189-2.565,6.669
		s-1.169,4.974-1.539,7.481c-0.371,2.509-0.628,4.931-0.77,7.268c-0.144,2.338-0.214,4.332-0.214,5.984
		c-0.627-2.107-1.325-4.531-2.095-7.268c-0.77-2.735-1.538-5.6-2.308-8.592c-0.77-2.993-1.483-6.057-2.139-9.191
		s-1.184-6.213-1.581-9.234c1.253-1.14,2.749-2.564,4.489-4.275c1.737-1.709,3.547-3.576,5.429-5.6
		c1.881-2.023,3.732-4.175,5.558-6.455c1.823-2.279,3.463-4.545,4.916-6.798c1.453-2.251,2.636-4.474,3.549-6.669
		c0.91-2.193,1.367-4.232,1.367-6.113c0-1.539-0.157-3.092-0.471-4.66c-0.313-1.566-0.884-2.963-1.709-4.189
		c-0.827-1.225-1.939-2.236-3.335-3.035c-1.397-0.797-3.179-1.197-5.344-1.197c-3.078,0-5.929,0.586-8.55,1.754
		c-2.623,1.168-5.017,2.75-7.182,4.744c-2.168,1.996-4.076,4.333-5.729,7.012c-1.654,2.68-3.051,5.515-4.189,8.508
		c-1.141,2.992-1.995,6.084-2.565,9.276c-0.236,1.322-0.411,2.626-0.55,3.919c-0.35,0.008-0.703,0.014-1.072,0.014
		c-2.168,0-4.361-0.099-6.584-0.299c-2.223-0.199-4.504-0.428-6.84-0.684c-2.338-0.258-4.732-0.484-7.183-0.685
		c-2.451-0.199-4.988-0.3-7.609-0.3c-5.472,0-9.833,0.629-13.081,1.881c-3.25,1.255-5.742,2.809-7.481,4.66
		c-1.738,1.854-2.878,3.82-3.42,5.9s-0.813,3.975-0.813,5.686c0,2.051,0.329,3.776,0.983,5.172c0.656,1.398,1.439,2.522,2.352,3.377
		c0.912,0.855,1.867,1.454,2.863,1.797c0.998,0.342,1.839,0.512,2.523,0.512c0.512,0,0.912-0.127,1.196-0.385
		c0.284-0.256,0.428-0.541,0.428-0.854c0-0.313-0.144-0.599-0.428-0.854c-0.284-0.257-0.685-0.385-1.196-0.385
		c-0.514,0-1.125-0.129-1.839-0.385c-0.712-0.257-1.382-0.697-2.009-1.326c-0.627-0.626-1.154-1.48-1.582-2.564
		c-0.428-1.082-0.642-2.45-0.642-4.104c0-1.711,0.313-3.42,0.94-5.131c0.628-1.709,1.554-3.248,2.779-4.617
		c1.227-1.367,2.75-2.479,4.574-3.334c1.823-0.855,3.933-1.283,6.326-1.283c1.767,0,3.406,0.031,4.917,0.086
		c1.509,0.058,2.92,0.143,4.231,0.257c-0.457,0.229-0.74,0.457-0.854,0.685c-0.058,0.113-0.085,0.227-0.085,0.34
		c0,1.026,0.256,2.806,0.77,5.34c0.513,2.534,1.082,5.752,1.709,9.652s1.197,8.457,1.711,13.666
		c0.513,5.211,0.77,11.063,0.77,17.553c0,6.436-0.229,12.23-0.685,17.384c-0.456,5.154-1.126,9.538-2.009,13.153
		c-0.885,3.615-1.967,6.392-3.25,8.328c-1.281,1.937-2.723,2.904-4.316,2.904c-1.654,0-2.965-0.385-3.934-1.154
		c-0.971-0.77-1.697-1.752-2.18-2.949c-0.486-1.197-0.799-2.494-0.941-3.891s-0.213-2.75-0.213-4.061
		c0-0.57-0.129-1.012-0.385-1.326c-0.258-0.313-0.557-0.47-0.898-0.47s-0.641,0.156-0.897,0.47
		c-0.257,0.314-0.385,0.756-0.385,1.326c0,1.481,0.056,3.121,0.171,4.916c0.113,1.795,0.513,3.507,1.197,5.135
		c0.684,1.627,1.752,2.994,3.206,4.104c1.453,1.107,3.519,1.662,6.198,1.662c3.934,0,7.367-1.282,10.303-3.848
		s5.357-6.128,7.268-10.688c1.909-4.562,3.348-9.974,4.318-16.245c0.969-6.27,1.453-13.109,1.453-20.52
		c0-5.301-0.158-10.175-0.471-14.621c-0.313-4.445-0.826-8.393-1.539-11.842c-0.713-3.447-1.624-6.369-2.735-8.764
		c-1.112-2.394-2.466-4.189-4.062-5.387c1.424,0.172,2.85,0.357,4.275,0.557c1.424,0.2,2.906,0.385,4.445,0.555
		c1.539,0.172,3.164,0.3,4.874,0.385c1.411,0.071,2.942,0.105,4.548,0.118c-0.004,0.26-0.018,0.522-0.018,0.78
		c0,6.783,0.313,12.84,0.939,18.168c0.629,5.331,1.411,10.02,2.352,14.065c0.94,4.048,2.01,7.497,3.207,10.346
		c1.196,2.851,2.351,5.159,3.462,6.925c1.112,1.768,2.123,3.064,3.036,3.891c0.91,0.827,1.594,1.24,2.051,1.24
		c0.685,0,1.582-0.043,2.693-0.129c1.111-0.085,2.193-0.27,3.25-0.556c1.054-0.284,1.966-0.684,2.735-1.196
		c0.77-0.514,1.154-1.168,1.154-1.967v-0.086c0.228-1.139,0.37-2.906,0.428-5.301c0.056-2.395,0.185-5.058,0.385-7.994
		c0.198-2.936,0.513-5.942,0.94-9.021c0.428-3.077,1.111-5.899,2.052-8.464c0.94-2.565,2.181-4.66,3.72-6.285
		c1.539-1.624,3.505-2.437,5.898-2.437c0.74,0,1.311,0.243,1.711,0.728c0.398,0.484,0.697,1.068,0.897,1.752
		c0.199,0.684,0.313,1.397,0.342,2.138c0.028,0.741,0.043,1.34,0.043,1.796c0,2.906-0.442,6.242-1.325,10.003
		c-0.885,3.763-1.854,7.896-2.907,12.397c-1.056,4.504-2.024,9.307-2.907,14.407c-0.884,5.102-1.324,10.417-1.324,15.945
		c0,3.591,0.284,6.854,0.854,9.79c0.569,2.936,1.353,5.43,2.351,7.48c0.997,2.053,2.209,3.648,3.635,4.789
		c1.424,1.139,2.992,1.709,4.702,1.709c1.481,0,2.892-0.727,4.231-2.18s2.594-3.406,3.763-5.856
		c1.167-2.452,2.266-5.272,3.292-8.465c1.025-3.192,1.979-6.513,2.863-9.96c0.804-3.137,1.514-6.272,2.152-9.409
		c0.834,0.479,1.643,0.73,2.422,0.73c1.767,0,3.348-0.627,4.746-1.882c1.396-1.252,2.664-2.791,3.805-4.616
		c0.056,3.306,0.398,6.313,1.025,9.021s1.482,5.016,2.565,6.926c1.082,1.908,2.379,3.377,3.89,4.402
		c1.51,1.026,3.234,1.539,5.174,1.539c1.994,0,3.932-0.784,5.813-2.352c1.881-1.568,3.647-3.561,5.301-5.984
		c1.653-2.422,3.191-5.115,4.617-8.08c0.183-0.38,0.354-0.755,0.531-1.132c0.433,1.709,0.978,3.152,1.649,4.296
		c0.77,1.312,1.754,1.967,2.95,1.967c2.165,0,3.69-0.385,4.574-1.154s1.325-1.61,1.325-2.523c0-2.107,0.199-4.559,0.599-7.353
		c0.397-2.792,0.926-5.656,1.581-8.593c0.655-2.936,1.425-5.827,2.309-8.678c0.884-2.85,1.81-5.4,2.779-7.652
		c0.969-2.252,1.951-4.062,2.949-5.43c0.997-1.367,1.953-2.052,2.865-2.052c0.797,0,1.282,0.983,1.453,2.95
		c0.171,1.966,0.171,4.545,0,7.737s-0.428,6.84-0.77,10.944c-0.342,4.104-0.613,8.309-0.813,12.611
		c-0.2,4.304-0.271,8.507-0.213,12.611c0.056,4.104,0.397,7.75,1.025,10.943c0.627,3.191,1.638,5.771,3.035,7.738
		c1.396,1.966,3.292,2.949,5.686,2.949c0.855,0,1.767-0.6,2.736-1.797c0.969-1.199,1.951-2.839,2.949-4.916
		c0.997-2.08,2.023-4.475,3.078-7.181c1.055-2.708,2.08-5.543,3.078-8.507c0.997-2.964,1.938-5.943,2.822-8.936
		c0.883-2.992,1.68-5.827,2.394-8.507c0.03-0.116,0.059-0.226,0.09-0.341c0.479,1.354,0.974,2.635,1.491,3.803
		c1.197,2.709,2.465,4.846,3.805,6.413c1.339,1.568,2.693,2.351,4.062,2.351c0.343,0,0.954-0.07,1.839-0.213
		c0.883-0.142,1.795-0.355,2.735-0.642c0.94-0.284,1.781-0.642,2.522-1.068c0.74-0.428,1.111-0.954,1.111-1.582
		c0-0.284-0.115-0.841-0.342-1.667c-0.229-0.826-0.514-1.924-0.855-3.292c-0.17-0.798-0.299-1.753-0.385-2.864
		c-0.085-1.111-0.186-2.492-0.299-4.146c2.053,0.628,3.775,1.667,5.173,3.121c1.396,1.453,2.608,3.107,3.634,4.959
		c1.025,1.853,1.98,3.776,2.864,5.771c0.883,1.995,1.823,3.818,2.821,5.471c0.996,1.654,2.18,3.022,3.549,4.104
		c1.367,1.082,3.049,1.624,5.044,1.624c1.767,0,3.319-0.727,4.659-2.18c0.848-0.919,1.612-2.005,2.312-3.222
		c0.9,0.776,1.906,1.469,3.033,2.067c0.228,3.762,0.567,7.723,1.023,11.885c0.454,4.16,1.065,8.279,1.835,12.354
		c0.766,4.075,1.719,7.979,2.857,11.714c1.137,3.732,2.529,7.011,4.178,9.832c1.648,2.822,3.584,5.072,5.801,6.754
		c2.219,1.682,4.75,2.523,7.592,2.523c2.162,0,4.067-0.357,5.716-1.069c1.648-0.714,3.042-1.653,4.181-2.821
		c1.137-1.169,1.988-2.508,2.558-4.019s0.854-3.064,0.854-4.659c0-4.162-0.328-8.395-0.98-12.697
		c-0.654-4.305-1.534-8.508-2.644-12.611c-1.106-4.104-2.397-8.08-3.875-11.928c-1.477-3.848-3.038-7.424-4.685-10.73
		c4.483-3.46,8.424-6.954,11.824-10.48c0.063,1.092,0.167,2.22,0.357,3.428c0.287,1.795,0.757,3.463,1.412,5.002
		s1.538,2.82,2.65,3.848c1.111,1.025,2.492,1.538,4.146,1.538c1.083,0,2.108-0.27,3.079-0.812c0.969-0.541,1.852-1.268,2.65-2.181
		c0.797-0.911,1.51-1.952,2.137-3.12s1.197-2.352,1.711-3.549c1.139-2.793,2.106-6.014,2.905-9.662
		c-0.398,5.644-0.37,10.66,0.086,15.049c0.172,1.881,0.472,3.719,0.898,5.514c0.428,1.797,0.997,3.391,1.71,4.789
		c0.713,1.396,1.596,2.521,2.65,3.377s2.322,1.282,3.805,1.282c1.711,0,3.306-0.784,4.788-2.351c1.48-1.568,2.85-3.563,4.104-5.985
		c1.253-2.423,2.378-5.101,3.376-8.037c0.997-2.935,1.882-5.813,2.65-8.636c0.198-0.725,0.387-1.432,0.567-2.122
		c0.261,2.775,0.579,5.51,0.973,8.192c0.654,4.477,1.539,8.722,2.65,12.74c1.11,4.018,2.491,7.552,4.146,10.602
		c1.652,3.049,3.619,5.457,5.899,7.225c2.279,1.767,4.901,2.65,7.865,2.65c1.54,0,3.079-0.955,4.617-2.863
		c1.54-1.911,3.036-4.404,4.489-7.482c1.453-3.077,2.835-6.568,4.146-10.473c1.311-3.904,2.536-7.867,3.677-11.885
		c1.14-4.019,2.15-7.909,3.035-11.67c0.883-3.764,1.638-7.04,2.266-9.834C405.514,200.559,405.441,200.26,405.242,200.003z
		 M376.173,166.103c0.6-3.647,1.353-7.167,2.267-10.56c0.911-3.391,1.966-6.568,3.163-9.533c1.197-2.963,2.507-5.543,3.934-7.738
		c1.423-2.193,2.963-3.918,4.617-5.172c1.652-1.254,3.361-1.881,5.129-1.881c0.626,0,1.21,0.157,1.754,0.47
		c0.54,0.313,0.996,0.698,1.367,1.154c0.37,0.457,0.67,0.94,0.898,1.454c0.226,0.513,0.341,0.969,0.341,1.367
		c0,2.167-0.427,4.476-1.283,6.926c-0.854,2.451-1.979,4.974-3.376,7.566c-1.396,2.595-2.979,5.188-4.745,7.781
		c-1.768,2.594-3.564,5.059-5.386,7.396c-1.827,2.338-3.606,4.503-5.345,6.498c-1.739,1.995-3.264,3.706-4.574,5.13
		C375.16,173.369,375.574,169.751,376.173,166.103z M295.548,172.088c1.567-6.954,3.42-12.924,5.559-17.912
		c2.137-4.988,4.416-9.092,6.84-12.313c2.422-3.22,4.715-5.771,6.883-7.652c2.165-1.881,4.089-3.177,5.771-3.891
		c1.681-0.711,2.864-1.068,3.548-1.068c1.595,0,3.006,0.328,4.232,0.982c1.226,0.656,2.266,1.539,3.121,2.651
		c0.855,1.111,1.496,2.394,1.923,3.847c0.429,1.454,0.642,3.008,0.642,4.66c0,3.877-0.713,7.71-2.137,11.5
		c-1.426,3.791-3.307,7.453-5.643,10.986c-2.338,3.535-4.988,6.912-7.952,10.133c-2.965,3.221-5.985,6.228-9.063,9.02
		c-3.078,2.793-6.084,5.33-9.02,7.609c-2.937,2.281-5.545,4.247-7.823,5.9C292.94,187.193,293.979,179.042,295.548,172.088z
		 M94.28,167.129c-0.029-0.799-0.043-1.596-0.043-2.395c0-4.73,0.398-9.119,1.197-13.166c0.798-4.047,1.967-7.568,3.506-10.561
		s3.434-5.328,5.686-7.011c2.251-1.681,4.801-2.522,7.652-2.522c1.14,0,2.18,0.514,3.121,1.539c0.939,1.026,1.41,2.623,1.41,4.788
		c0,2.509-0.842,5.272-2.521,8.294c-1.683,3.021-3.72,6.014-6.113,8.977c-2.395,2.965-4.861,5.729-7.396,8.294
		c-2.537,2.565-4.66,4.646-6.369,6.241C94.351,168.753,94.309,167.928,94.28,167.129z M238.989,167.77c0-2.309,0-4.631,0-6.969
		c0-3.476,0.569-7.096,1.711-10.857c1.139-3.763,2.678-7.183,4.616-10.261c1.938-3.077,4.19-5.613,6.755-7.609
		c2.564-1.995,5.271-2.992,8.123-2.992c1.252,0,2.293,0.585,3.12,1.753c0.825,1.168,1.239,2.664,1.239,4.488
		c0,2.623-0.441,5.246-1.324,7.866c-0.885,2.622-2.024,5.188-3.42,7.694c-1.398,2.51-3.008,4.932-4.832,7.268
		c-1.824,2.338-3.676,4.519-5.557,6.541c-1.881,2.023-3.72,3.891-5.516,5.601c-1.795,1.71-3.377,3.163-4.744,4.36
		C239.046,172.373,238.989,170.078,238.989,167.77z M246.514,206.116c-0.058-2.963,0.028-5.87,0.257-8.721
		c0.227-2.85,0.611-5.387,1.154-7.61c0.541-2.223,1.295-4.018,2.266-5.386c0.969-1.368,2.165-2.052,3.591-2.052
		c0.911,0,1.539,0.513,1.881,1.539c0.342,1.025,0.513,2.423,0.513,4.189c0,1.367-0.313,2.863-0.939,4.488
		c-0.629,1.625-1.426,3.249-2.395,4.873c-0.971,1.625-2.023,3.179-3.164,4.66C248.536,203.58,247.481,204.92,246.514,206.116z
		 M276.183,213.641c0.684-1.424,1.739-2.565,3.164-3.42c-0.059,0.627-0.086,1.269-0.086,1.924s0,1.324,0,2.009
		c0,0.301,0.001,0.631,0.002,0.97c-0.281,1.362-0.59,2.744-0.943,4.16c-0.432,1.728-0.915,3.338-1.44,4.849
		c-0.171-0.313-0.339-0.629-0.482-0.958c-0.712-1.625-1.097-3.263-1.154-4.916C275.187,216.605,275.499,215.066,276.183,213.641z
		 M278.511,226.465c0.313-0.795,0.606-1.622,0.886-2.476c0.032,1.116,0.071,2.274,0.12,3.502
		C279.157,227.163,278.824,226.819,278.511,226.465z M292.897,222.318c-0.143-2.593-0.271-5.258-0.385-7.994
		c1.311,1.539,2.722,3.278,4.231,5.216c1.511,1.938,2.894,4.161,4.147,6.669c-1.141,0.799-2.381,1.525-3.719,2.18
		c-1.34,0.656-2.58,1.184-3.719,1.582C293.226,227.463,293.04,224.913,292.897,222.318z M306.15,239.418
		c1.396,3.733,2.636,7.596,3.719,11.586c1.083,3.989,1.952,8.008,2.608,12.056c0.654,4.046,0.982,8.007,0.982,11.884
		c0,1.311-0.17,2.352-0.512,3.121c-0.343,0.77-0.757,1.381-1.24,1.838c-0.485,0.457-0.998,0.756-1.539,0.898
		c-0.543,0.143-1.041,0.213-1.496,0.213c-1.197,0-2.51-1.154-3.934-3.462c-1.426-2.309-2.821-5.558-4.189-9.747
		s-2.65-9.249-3.848-15.176c-1.197-5.93-2.166-12.483-2.906-19.666c1.311-0.284,2.607-0.727,3.891-1.324
		c1.281-0.6,2.663-1.467,4.146-2.608C303.313,232.223,304.753,235.685,306.15,239.418z"/>
</g>
</svg>
